<?xml version="1.0" encoding="UTF-8" standalone="no"?>
<svg
   xmlns:dc="http://purl.org/dc/elements/1.1/"
   xmlns:cc="http://creativecommons.org/ns#"
   xmlns:rdf="http://www.w3.org/1999/02/22-rdf-syntax-ns#"
   xmlns:svg="http://www.w3.org/2000/svg"
   xmlns="http://www.w3.org/2000/svg"
   version="1.1"
   id="svg4318"
   viewBox="0 0 3033.9999 4853.9609"
   height="1369.8956mm"
   width="856.26221mm">
  <defs
     id="defs4320" />
  <metadata
     id="metadata4323">
    <rdf:RDF>
      <cc:Work
         rdf:about="">
        <dc:format>image/svg+xml</dc:format>
        <dc:type
           rdf:resource="http://purl.org/dc/dcmitype/StillImage" />
        <dc:title></dc:title>
      </cc:Work>
    </rdf:RDF>
  </metadata>
  <g
     transform="translate(931.92864,1990.4176)"
     id="layer1">
    <path
       id="path4877"
       d="m 460.0714,2862.5888 c -2.475,-0.4449 -11.925,-1.1005 -21,-1.457 -11.1768,-0.439 -19.0809,-1.2887 -24.5,-2.6337 -4.4,-1.0921 -13.7027,-2.3571 -20.6727,-2.8111 -6.97,-0.454 -13.104,-1.0921 -13.6311,-1.4178 -1.3224,-0.8173 -19.8412,-2.3565 -43.6962,-3.6317 -20.5461,-1.0983 -36.8358,-3.7302 -48.7334,-7.8737 -3.6077,-1.2564 -13.247,-2.7714 -26,-4.0861 -29.9262,-3.0853 -38.3978,-4.5302 -46.302,-7.897 -7.1448,-3.0434 -18.8942,-5.4533 -32.4646,-6.6587 -12.5513,-1.1149 -21.6822,-3.2191 -29.7802,-6.8629 -4.3119,-1.9402 -11.6928,-4.1881 -16.7198,-5.0921 -20.0163,-3.5995 -29.1714,-5.7145 -32.5,-7.5079 -7.9834,-4.3016 -10.6962,-5.215 -19.3846,-6.5272 -11.2385,-1.6974 -20.9955,-4.6711 -25.6154,-7.807 -4.0566,-2.7535 -10.2555,-4.8491 -21.4977,-7.2675 -4.5226,-0.9729 -11.1417,-3.3763 -15.2332,-5.5311 -3.9794,-2.0958 -10.5054,-4.7577 -14.5022,-5.9152 -14.9788,-4.3381 -17.4008,-5.2402 -22.7669,-8.4795 -3.025,-1.8262 -9.55,-4.5164 -14.5,-5.9783 -4.95,-1.462 -11.9388,-4.4157 -15.5307,-6.564 -3.5919,-2.1482 -9.4388,-4.8605 -12.9932,-6.0274 -7.7051,-2.5294 -11.6756,-4.4929 -18.8266,-9.3099 -2.9428,-1.9822 -5.8192,-3.6041 -6.3922,-3.6041 -4.3226,0 -15.0198,-4.4789 -18.9413,-7.9307 -2.7045,-2.3806 -6.9895,-4.7802 -10.871,-6.0878 -8.1775,-2.7548 -9.7834,-3.5972 -13.445,-7.0524 -1.65,-1.557 -7.0407,-4.6969 -11.9792,-6.9776 -4.9386,-2.2806 -10.6404,-5.4622 -12.6706,-7.0702 -2.0303,-1.608 -8.054,-4.9484 -13.3861,-7.4232 -5.3321,-2.4748 -11.494,-6.0398 -13.6933,-7.9223 -2.1992,-1.8824 -5.9979,-4.3624 -8.4416,-5.5111 -2.4437,-1.1487 -6.3299,-3.8176 -8.6361,-5.931 -2.3062,-2.1135 -7.3431,-5.7476 -11.1931,-8.0759 -3.85,-2.3283 -7.9,-5.0406 -9,-6.0274 -1.1,-0.9867 -4.2415,-2.8366 -6.9811,-4.111 -2.7397,-1.2743 -7.0147,-4.4335 -9.5,-7.0203 -2.7017,-2.812 -7.2713,-6.0101 -11.3635,-7.9527 -3.7645,-1.7872 -8.0395,-4.4355 -9.5,-5.8852 -1.4605,-1.4497 -5.5804,-4.595 -9.1554,-6.9897 -3.575,-2.3946 -8.3678,-6.0493 -10.6506,-8.1216 -2.2828,-2.0723 -6.1078,-4.7552 -8.5,-5.9619 -2.3922,-1.2068 -6.1531,-4.0513 -8.3575,-6.3211 -2.2045,-2.2698 -6.8169,-5.6157 -10.2499,-7.4354 -3.4329,-1.8197 -8.1152,-5.3076 -10.4052,-7.7507 -2.2899,-2.4432 -6.0975,-5.5756 -8.4613,-6.9609 -2.3638,-1.3853 -4.7035,-3.2436 -5.1994,-4.1297 -0.4958,-0.886 -3.8413,-3.9148 -7.4344,-6.7306 -15.4581,-12.1141 -24.5901,-19.7822 -25.0804,-21.0598 -0.2892,-0.7538 -2.6939,-2.8252 -5.3436,-4.6031 -2.6497,-1.778 -7.0677,-5.3727 -9.8177,-7.9883 -12.9805,-12.3464 -22.5741,-20.8996 -25.1611,-22.4324 -1.5614,-0.9251 -4.1121,-3.4582 -5.6682,-5.6291 -1.5562,-2.171 -4.5701,-4.8352 -6.6976,-5.9206 -2.1275,-1.0854 -5.2734,-4.0158 -6.9909,-6.5122 -1.7175,-2.4963 -4.7786,-5.6432 -6.8025,-6.993 -2.0238,-1.3498 -4.79,-4.0933 -6.147,-6.0966 -1.357,-2.0033 -4.7977,-5.364 -7.646,-7.4682 -2.8484,-2.1042 -8.0381,-7.1047 -11.5328,-11.1123 -6.1633,-7.0679 -14.9276,-16.0669 -19.914,-20.4474 -1.342,-1.1788 -5.5899,-5.8846 -9.4399,-10.4573 -3.85,-4.5726 -9.0271,-10.3581 -11.5047,-12.8566 -2.4777,-2.4985 -6.5183,-7.1929 -8.9791,-10.432 -2.4609,-3.2392 -7.7891,-9.1826 -11.8403,-13.2076 -4.0513,-4.0251 -8.7857,-9.304 -10.5209,-11.731 -1.7353,-2.4269 -4.6304,-6.1585 -6.4337,-8.2923 -7.2668,-8.599 -14.1625,-17.2987 -17.7916,-22.446 -2.1072,-2.9886 -5.1484,-6.9774 -6.7582,-8.8641 -1.6099,-1.8867 -4.5241,-5.9367 -6.4762,-9 -3.9193,-6.1507 -9.6981,-13.3648 -15.4555,-19.2945 -2.0681,-2.13 -5.0689,-6.4652 -6.6684,-9.6338 -1.5995,-3.1686 -3.6498,-6.3765 -4.5562,-7.1288 -0.9064,-0.7523 -3.7027,-4.5503 -6.2141,-8.4402 -2.5113,-3.8898 -5.6163,-8.3266 -6.9001,-9.8594 -1.2838,-1.5329 -3.6689,-5.5829 -5.3003,-9 -1.6314,-3.4172 -4.4046,-7.563 -6.1626,-9.213 -1.7581,-1.65 -4.2236,-5.25 -5.479,-8 -1.2553,-2.75 -4.2346,-6.8179 -6.6207,-9.0398 -3.0134,-2.8059 -4.761,-5.5024 -5.722,-8.8286 -0.761,-2.6339 -3.2932,-7.341 -5.6272,-10.4602 -2.334,-3.1193 -5.8627,-8.9004 -7.8415,-12.847 -1.9789,-3.9466 -4.0677,-7.4659 -4.6418,-7.8208 -0.5742,-0.3548 -2.2145,-2.9551 -3.6452,-5.7785 -1.4307,-2.8233 -4.9729,-8.5963 -7.8716,-12.8288 -2.8987,-4.2326 -6.2324,-10.267 -7.4083,-13.4098 -1.1759,-3.1428 -4.2747,-9.3755 -6.8863,-13.8504 -2.6115,-4.4748 -5.3029,-9.2611 -5.9809,-10.6361 -0.6779,-1.375 -2.7655,-4.398 -4.6391,-6.7177 -1.8737,-2.3197 -4.354,-6.7499 -5.512,-9.8448 -1.158,-3.095 -3.175,-7.047 -4.4823,-8.7823 -1.3073,-1.7354 -4.4263,-7.4302 -6.9311,-12.6552 -2.5048,-5.225 -5.4838,-11.075 -6.62,-13 -1.1363,-1.925 -2.9791,-6.0583 -4.09512,-9.1851 -1.11603,-3.1269 -3.79238,-8.2831 -5.94745,-11.4584 -2.15508,-3.1753 -4.8294,-8.7728 -5.94293,-12.4389 -1.11354,-3.6661 -3.68642,-9.0814 -5.7175,-12.0341 -2.03109,-2.9527 -4.72548,-8.7153 -5.98753,-12.8057 -1.45104,-4.7031 -3.38408,-8.566 -5.25799,-10.5075 -2.08182,-2.157 -3.60311,-5.4501 -5.11392,-11.0703 -1.18281,-4.4 -3.96482,-11.3427 -6.18224,-15.4282 -2.21742,-4.0854 -5.31796,-11.2335 -6.89009,-15.8844 -1.57214,-4.651 -4.2339,-10.5998 -5.91504,-13.2197 -1.90895,-2.9748 -4.01444,-8.6502 -5.60765,-15.1155 -1.85564,-7.5303 -3.57587,-11.8891 -6.31063,-15.9905 -2.60003,-3.8992 -4.42238,-8.3715 -5.9085,-14.5 -1.1819,-4.8739 -3.6657,-11.7867 -5.51957,-15.3617 -1.85386,-3.575 -4.59449,-10.7731 -6.09028,-15.9957 -1.4958,-5.2227 -4.25441,-12.2402 -6.13026,-15.5946 -2.25959,-4.0405 -4.24244,-9.8595 -5.87537,-17.2423 -1.35561,-6.1289 -3.83624,-13.9872 -5.51251,-17.4629 -1.67626,-3.4756 -4.00672,-10.7935 -5.17878,-16.2619 -1.17206,-5.4684 -3.63973,-13.3857 -5.48371,-17.594 -3.40288,-7.7659 -6.33204,-18.6723 -8.41935,-31.3486 -0.63395,-3.85 -2.64897,-10.375 -4.47782,-14.5 -1.82885,-4.125 -4.05063,-11.325 -4.93729,-16 -2.73041,-14.3963 -4.49674,-21.1435 -8.00409,-30.575 -2.23853,-6.0195 -3.88377,-12.9813 -4.88651,-20.677 -1.00453,-7.7094 -2.52205,-14.1252 -4.52302,-19.1224 -3.05117,-7.6199 -5.42839,-17.6182 -6.56831,-27.6256 -1.46358,-12.8487 -2.96271,-20.2662 -6.66959,-33 -2.88324,-9.9045 -4.19312,-16.696 -4.9182,-25.5 -1.84512,-22.4036 -3.00612,-29.6143 -6.41064,-39.8155 -3.7593,-11.2642 -5.07497,-19.3476 -6.54049,-40.1845 -0.7112,-10.1118 -1.96017,-17.8794 -4.49713,-27.9686 -3.62252,-14.4062 -5.56053,-27.7913 -7.53361,-52.0314 -1.20084,-14.7529 -2.84589,-25.0121 -6.03851,-37.6587 -2.27108,-8.9962 -3.42946,-19.5313 -4.93048,-44.8413 -1.10924,-18.7038 -3.02895,-34.5283 -5.51971,-45.5 -2.24222,-9.8769 -4.31369,-31.5322 -5.45243,-57 -1.48382,-33.1856 -4.76524,-75.3301 -6.64967,-85.4039 -0.86462,-4.6222 -1.98152,-18.5722 -2.48198,-31 -0.50046,-12.4279 -1.33657,-27.0961 -1.85801,-32.5961 -0.59245,-6.2489 -0.96629,-587.0371 -0.99663,-1548.3269 l -0.0486,-1538.327 2.95582,-2.9558 2.95582,-2.9558 205.01298,0.1013 205.01298,0.1013 2.5312,3.0082 2.5312,3.0081 0.1239,1443.1733 c 0.068,793.7453 0.4668,1481.1983 0.8857,1527.6733 0.7755,86.0162 2.1232,121.5419 5.3871,142 0.8336,5.225 2.0058,17.6 2.6048,27.5 0.599,9.9 1.4892,21.15 1.9783,25 0.489,3.85 1.1609,15.325 1.4931,25.5 0.8002,24.5053 2.2157,41.3109 4.5062,53.5 3.8061,20.2538 6.0015,37.444 7.0241,55 1.274,21.871 2.4955,30.8305 5.4536,40 2.9269,9.0726 4.0559,15.7976 6.631,39.5 1.4919,13.7314 2.945,22.1624 4.912,28.5 3.6004,11.6001 3.5106,11.1454 6.0234,30.5 1.1873,9.1445 3.1947,19.6205 4.5033,23.5 3.6785,10.9062 6.302,22.2017 8.0238,34.5464 1.0248,7.3474 2.7491,14.3412 4.9046,19.8924 1.8283,4.7087 4.6953,15.5372 6.3712,24.0633 1.9951,10.1505 4.1117,17.7774 6.1312,22.093 1.8136,3.8756 3.9225,11.0843 5.1188,17.4979 1.1949,6.4054 3.2703,13.5028 5.0286,17.1964 3.0411,6.3882 4.5641,11.9631 7.4336,27.2106 1.0495,5.5765 2.7892,10.6363 5.058,14.7113 2.0354,3.6557 4.4839,10.4444 5.9512,16.5 1.3712,5.6588 4.044,13.6637 5.9397,17.7887 1.8957,4.125 4.1517,10.65 5.0134,14.5 1.8891,8.4408 3.1692,11.8873 6.1285,16.5 1.235,1.925 3.1938,7.325 4.3529,12 3.1281,12.6162 4.9531,17.7597 8.1202,22.8849 1.5685,2.5383 4.1603,9.0366 5.7596,14.4407 1.5992,5.4041 4.2363,11.7041 5.8601,14 1.6238,2.2959 4.1884,8.2244 5.6991,13.1744 1.5106,4.95 3.9387,11.025 5.3956,13.5 3.4335,5.8328 5.4551,10.283 7.5808,16.6875 0.947,2.8531 3.0182,6.8188 4.6026,8.8125 1.5844,1.9937 3.6443,5.9594 4.5775,8.8125 2.0789,6.3563 4.9686,12.2103 7.9904,16.1875 1.2537,1.65 3.2639,5.7 4.4672,9 1.2033,3.3 3.5147,7.6948 5.1364,9.7661 1.6218,2.0714 4.2921,6.7964 5.9342,10.5 1.642,3.7037 4.0555,8.7589 5.3634,11.2339 1.3078,2.475 4.1682,7.875 6.3564,12 2.1882,4.125 6.0476,10.5727 8.5765,14.3283 2.5289,3.7555 4.598,7.3389 4.598,7.9631 0,0.6241 2.1375,4.4421 4.75,8.4843 2.6125,4.0422 8.4355,13.0588 12.94,20.0369 4.5044,6.9781 9.5899,14.3425 11.3009,16.3654 1.7111,2.0229 4.384,6.2979 5.9398,9.5 1.5558,3.2021 3.8315,6.722 5.0571,7.822 1.2256,1.1 3.2756,4.025 4.5555,6.5 1.28,2.475 3.9408,6.75 5.913,9.5 1.9722,2.75 5.22,7.475 7.2175,10.5 1.9975,3.025 5.331,7.3678 7.4079,9.6506 2.0769,2.2828 4.698,5.9574 5.8246,8.1658 1.1266,2.2083 3.4069,4.9825 5.0672,6.1647 1.6603,1.1823 4.2274,4.2577 5.7045,6.8342 1.4772,2.5766 4.9665,7.031 7.7539,9.8988 9.2745,9.5416 13.0451,13.7528 15.5681,17.3868 2.3987,3.455 5.6643,6.9974 18.25,19.7964 3.1625,3.2161 5.75,6.56 5.75,7.4308 0,0.8708 2.8125,4.4947 6.25,8.053 3.4375,3.5583 9.175,9.6727 12.75,13.5875 3.575,3.9148 7.5713,8.1109 8.8807,9.3246 25.4696,23.6091 32.4216,29.815 34.7898,31.0562 1.5562,0.8157 4.5427,3.5497 6.6367,6.0757 2.0939,2.5259 5.4689,5.4474 7.5,6.4922 2.031,1.0447 5.0428,3.3374 6.6928,5.0947 1.65,1.7574 5.475,4.7802 8.5,6.7174 3.025,1.9373 7.5938,5.4678 10.1529,7.8457 2.5591,2.3778 6.7541,5.3111 9.3224,6.5183 2.5682,1.2072 5.8744,3.7298 7.3471,5.6058 1.4727,1.8759 5.8419,5.3964 9.7093,7.8233 3.8675,2.4268 8.3675,5.8196 10,7.5395 1.6326,1.7198 5.6683,4.4969 8.9683,6.1713 3.3,1.6743 8.26,4.9739 11.0222,7.3323 2.7622,2.3584 7.339,5.4518 10.1707,6.874 2.8317,1.4223 7.0722,4.1932 9.4233,6.1575 2.3512,1.9643 6.9993,4.9422 10.3293,6.6176 3.33,1.6753 7.5173,4.3239 9.3051,5.8857 1.7879,1.5618 6.5129,4.3537 10.5,6.2043 3.9872,1.8505 9.5713,5.3515 12.4093,7.7799 2.8379,2.4285 7.404,5.2049 10.1468,6.1699 2.7428,0.9649 7.2926,3.8275 10.1107,6.3611 4.179,3.7574 6.8559,5.143 14.5187,7.5157 6.7205,2.0809 10.7049,3.9915 13.9967,6.7117 2.5309,2.0914 7.1814,4.6103 10.3345,5.5975 7.4295,2.3261 9.9816,3.6723 15.1535,7.9933 2.8664,2.3948 7.0001,4.3928 12.6601,6.1192 4.6222,1.4099 9.6942,3.6491 11.2711,4.976 4.5849,3.8578 12.0515,7.1388 20.4328,8.9785 5.894,1.2937 8.7833,2.543 11.8961,5.1436 5.5496,4.6366 6.2326,4.933 14.5674,6.3215 12.0975,2.0154 16.9407,3.6543 23.2502,7.8675 5.9858,3.9972 7.801,4.5549 26.8067,8.2355 3.4679,0.6716 8.6429,2.6284 11.5,4.3485 7.711,4.6423 10.0643,5.4094 23.0813,7.5239 9.0523,1.4705 13.6894,2.8101 19.4478,5.618 10.0522,4.9017 11.3711,5.233 27.7691,6.9768 12.4367,1.3225 22.953,3.5416 42.3966,8.9466 6.6806,1.8571 16.6729,3.0774 41,5.007 22.4749,1.7827 38.6807,3.8983 50,6.5275 21.9082,5.0886 76.8009,6.9467 151,5.1113 38.4196,-0.9504 56.567,-2.3532 72.5,-5.6045 12.3663,-2.5235 34.6573,-5.3629 47,-5.987 23.0594,-1.1658 37.815,-3.4337 62.6527,-9.6296 10.9532,-2.7324 19.5101,-4.1935 28.5,-4.8665 15.0644,-1.1278 18.2511,-1.9312 25.8798,-6.525 6.1264,-3.6891 11.155,-5.0244 24.4675,-6.4972 7.1214,-0.7878 9.9497,-1.6914 17.4388,-5.5713 6.9361,-3.5934 11.6411,-5.188 21,-7.1173 12.5739,-2.592 13.6519,-2.9993 20.4171,-7.7146 2.8284,-1.9715 6.9953,-3.4658 13.23,-4.7446 9.9891,-2.0489 14.8813,-3.9572 22.349,-8.7178 2.7142,-1.7303 9.9142,-4.7662 16,-6.7463 6.08584,-1.9802 13.54014,-5.1483 16.56514,-7.0402 3.025,-1.892 9.1647,-4.5626 13.6439,-5.9348 4.4791,-1.3721 9.6541,-3.5898 11.5,-4.9281 4.8821,-3.5398 11.6414,-6.9984 17.3561,-8.8809 2.75,-0.9058 6.9551,-3.2017 9.3447,-5.1018 2.3896,-1.9002 6.8138,-4.3787 9.8315,-5.5077 7.998,-2.9925 11.3037,-4.857 16.1471,-9.1073 2.3778,-2.0866 7.3606,-4.9545 11.073,-6.3731 4.0613,-1.5519 8.0862,-3.9581 10.105,-6.041 2.0075,-2.0712 6.1696,-4.5659 10.3611,-6.2104 4.3754,-1.7166 8.3446,-4.1309 10.5717,-6.4303 1.9612,-2.0249 6.1458,-4.8954 9.299,-6.3788 3.1533,-1.4835 7.6533,-4.3859 10,-6.4499 2.3468,-2.0639 7.0615,-5.1623 10.4771,-6.8852 3.4156,-1.7229 8.4932,-5.1603 11.2836,-7.6385 2.7903,-2.4782 7.3244,-5.6465 10.0757,-7.0407 2.7513,-1.3942 6.6737,-4.0154 8.7164,-5.8249 2.0428,-1.8095 6.5302,-4.9785 9.9722,-7.0423 3.4419,-2.0637 7.3888,-5.2348 8.7709,-7.0467 1.3821,-1.812 5.096,-4.6714 8.2531,-6.3541 3.1572,-1.6827 6.8603,-4.2563 8.2291,-5.7191 1.3688,-1.4627 4.7388,-4.2779 7.4888,-6.2559 2.75,-1.978 7.4951,-5.9308 10.5446,-8.784 3.0495,-2.8531 7.3991,-6.1337 9.6658,-7.29 2.2666,-1.1564 5.0871,-3.459 6.2677,-5.117 1.1805,-1.658 5.1559,-4.9945 8.8342,-7.4146 3.6782,-2.42 10.7377,-8.5387 15.6877,-13.5971 4.95,-5.0584 10.3237,-10.3945 11.9415,-11.8581 10.2484,-9.271 28.7508,-29.2806 32.6197,-35.2767 1.2831,-1.9886 3.8882,-4.6814 5.789,-5.9838 1.9008,-1.3025 4.7172,-4.4004 6.2587,-6.8843 1.5414,-2.4839 4.3947,-5.7707 6.3407,-7.3039 1.9459,-1.5332 4.2741,-4.2332 5.1737,-6 0.8997,-1.7668 4.0612,-5.6873 7.0256,-8.7123 2.9644,-3.025 7.8168,-7.975 10.7831,-11 2.9663,-3.025 6.1742,-7.0691 7.1288,-8.9869 0.9546,-1.9178 3.4625,-5.2928 5.5732,-7.5 9.6935,-10.1366 13.9124,-15.4554 15.8563,-19.9904 1.1554,-2.6955 4.2735,-7.8533 6.9292,-11.4618 2.6556,-3.6085 5.6215,-8.1359 6.5907,-10.0609 0.9693,-1.925 3.2603,-5.1713 5.091,-7.2141 1.8308,-2.0427 4.4249,-5.8677 5.7648,-8.5 1.3398,-2.6322 3.6501,-5.9109 5.134,-7.2859 1.4839,-1.375 3.8349,-4.75 5.2245,-7.5 1.3896,-2.75 4.5486,-7.7 7.02,-11 2.4714,-3.3 5.5893,-8.475 6.9288,-11.5 1.3395,-3.025 3.5074,-6.625 4.8176,-8 1.3102,-1.375 3.6992,-5.425 5.3089,-9 1.6096,-3.575 3.9021,-7.3699 5.0944,-8.433 1.1923,-1.0632 4.0363,-5.3382 6.3201,-9.5 2.2838,-4.1619 5.6098,-9.704 7.3911,-12.316 1.7814,-2.6119 3.7709,-6.4369 4.4213,-8.5 0.6504,-2.063 2.9794,-6.7758 5.1756,-10.4728 2.1962,-3.6969 5.3,-9.9334 6.8975,-13.8587 1.5974,-3.9253 4.2467,-8.8318 5.8873,-10.9032 1.6406,-2.0715 4.5879,-7.9851 6.5495,-13.1413 1.9616,-5.1563 4.7033,-11.0247 6.0927,-13.0409 1.3894,-2.0163 4.0965,-7.8663 6.0158,-13 1.9193,-5.1338 4.5817,-10.9296 5.9165,-12.8796 1.3349,-1.95 3.7715,-7.523 5.4147,-12.3845 1.6433,-4.8614 4.3272,-10.9263 5.9643,-13.4774 1.6371,-2.5512 4.1072,-8.9032 5.4892,-14.1156 1.382,-5.2123 4.3231,-13.077 6.5358,-17.477 2.2126,-4.4 5.2058,-12.275 6.6515,-17.5 1.4457,-5.225 3.868,-11.75 5.3829,-14.5 1.5149,-2.75 3.9336,-9.1789 5.3748,-14.2864 1.4413,-5.1076 3.973,-11.8852 5.626,-15.0614 1.6531,-3.1762 3.9155,-10.0223 5.0277,-15.2136 1.1789,-5.5022 3.6546,-12.775 5.9364,-17.4386 2.6047,-5.3235 4.4479,-11.0111 5.5093,-17 2.7614,-15.5816 3.6673,-18.7935 7.6155,-27 2.7799,-5.7782 4.2883,-10.7506 5.4313,-17.9039 0.8704,-5.4472 3.1395,-13.8885 5.0425,-18.7585 1.903,-4.87 4.7823,-15.5109 6.3985,-23.6464 1.6162,-8.1354 4.3039,-18.2016 5.9727,-22.3693 1.8201,-4.5453 3.6189,-11.728 4.4953,-17.9497 1.8326,-13.0099 4.8219,-25.9046 8.548,-36.8722 1.9948,-5.8716 3.2245,-12.2107 3.9769,-20.5 1.6403,-18.0722 2.963,-25.2788 6.0913,-33.1872 3.4628,-8.7541 4.4272,-14.0634 6.4144,-35.3128 0.8487,-9.075 2.4674,-20.1 3.5971,-24.5 1.1298,-4.4 2.6922,-10.475 3.4721,-13.5 0.7799,-3.025 2.3344,-16.75 3.4545,-30.5 1.12,-13.75 2.6959,-29.05 3.502,-34 0.8061,-4.95 2.1628,-13.275 3.0149,-18.5 2.8313,-17.3603 4.4502,-34.2163 6.0028,-62.5 2.6212,-47.7524 4.3783,-73.334 5.4457,-79.2832 0.5641,-3.1442 1.4798,-14.7168 2.0349,-25.7168 0.5551,-11 1.5295,-22.475 2.1654,-25.5 0.8705,-4.1409 1.3037,-382.509 1.7531,-1531.2273 l 0.5969,-1525.7273 2.7728,-2.7727 2.7727,-2.7727 205.0605,-0.2116 205.0606,-0.2117 2.4167,2.6077 2.4167,2.6077 -0.01,1544.1039 c 0,1003.5823 -0.3512,1547.0795 -0.9891,1552.604 -0.5399,4.675 -1.4392,17.05 -1.9986,27.5 -0.5593,10.45 -1.6731,21.7 -2.4752,25 -0.802,3.3 -1.4786,10.5 -1.5035,16 -0.025,5.5 -0.6897,15.85 -1.4773,23 -1.576,14.3064 -2.0514,21.4195 -3.6097,54 -1.2241,25.5935 -2.0979,34.0574 -5.4199,52.5 -3.0414,16.8848 -4.2672,27.9231 -5.4967,49.5 -0.676,11.8629 -2.3198,24.8568 -5.4394,43 -2.4589,14.3 -5.1923,34.1 -6.0743,44 -2.2492,25.2466 -3.6715,33.5654 -8.5484,50 -1.3187,4.4438 -2.427,12.295 -3.0349,21.5 -1.1661,17.6557 -3.0717,29.9951 -6.8723,44.5 -3.2414,12.3711 -4.6283,20.3204 -5.583,32 -0.3596,4.4 -2.639,16.0018 -5.0653,25.7819 -2.4264,9.78 -5.3336,24.405 -6.4605,32.5 -2.1851,15.6961 -3.3244,20.6375 -7.3128,31.7181 -1.3858,3.85 -3.0093,11.05 -3.6077,16 -0.6728,5.5645 -2.776,13.9623 -5.5097,22 -2.4319,7.15 -5.5466,19.148 -6.9216,26.6623 -1.375,7.5142 -3.8513,17.1892 -5.5028,21.5 -1.6516,4.3107 -4.8026,15.3455 -7.0022,24.5217 -2.1995,9.1761 -5.1517,18.888 -6.5602,21.5818 -1.4086,2.6939 -3.5149,9.3611 -4.6807,14.816 -1.2488,5.8436 -3.5031,12.5885 -5.4873,16.4182 -1.9073,3.6812 -4.2598,10.6198 -5.4248,16 -1.2388,5.7205 -3.5772,12.4849 -5.8778,17.0028 -2.1013,4.1266 -5.0161,12.0016 -6.4773,17.5 -1.4611,5.4985 -4.1936,12.9716 -6.0722,16.6069 -1.8785,3.6354 -4.5519,11.2026 -5.9409,16.8161 -1.6256,6.5703 -3.7651,12.2312 -6.0057,15.8902 -2.1531,3.5164 -4.456,9.4976 -6.0387,15.684 -1.407,5.5 -3.4481,11.125 -4.5358,12.5 -3.4143,4.3163 -5.7761,9.3963 -7.4668,16.06 -0.8986,3.542 -3.1676,8.9577 -5.0422,12.0349 -1.8745,3.0772 -4.6014,8.9272 -6.0597,13 -1.4583,4.0728 -4.1303,9.8801 -5.9377,12.9051 -1.8075,3.025 -4.2608,8.5204 -5.4518,12.2119 -1.1911,3.6916 -3.2545,8.3165 -4.5853,10.2776 -3.3685,4.9637 -4.8332,8.0117 -7.4533,15.5105 -1.2491,3.575 -3.5891,8.4267 -5.1999,10.7815 -1.6108,2.3548 -4.2602,7.5298 -5.8876,11.5 -1.6273,3.9702 -4.4936,9.4685 -6.3695,12.2185 -1.876,2.75 -4.6097,8.375 -6.0749,12.5 -1.4653,4.125 -3.9657,8.8694 -5.5565,10.5432 -1.5908,1.6738 -3.8362,5.838 -4.9897,9.2538 -1.1535,3.4157 -3.8387,8.3178 -5.9671,10.8935 -2.1284,2.5756 -5.2719,8.1612 -6.9856,12.4124 -1.7136,4.2512 -4.0438,8.5546 -5.1782,9.5632 -1.1343,1.0087 -3.8286,5.6589 -5.9872,10.3339 -2.1586,4.675 -4.7419,9.4 -5.7407,10.5 -2.0738,2.2839 -7.0524,11.4685 -7.0524,13.0104 0,0.5644 -1.8542,3.268 -4.1204,6.0079 -2.2663,2.7399 -5.2068,7.4352 -6.5344,10.4339 -1.3277,2.9987 -4.1596,7.7237 -6.2931,10.5 -2.1335,2.7763 -4.9822,7.5228 -6.3305,10.5478 -1.3483,3.025 -3.6947,6.625 -5.2141,8 -1.5194,1.375 -3.9978,5.2 -5.5075,8.5 -1.5097,3.3 -3.9719,7.125 -5.4714,8.5 -1.4996,1.375 -3.7776,4.5645 -5.0622,7.0878 -1.2846,2.5233 -4.0302,6.7983 -6.1012,9.5 -2.0711,2.7017 -5.5217,7.7926 -7.6681,11.3132 -2.1464,3.5205 -5.226,7.5146 -6.8436,8.8758 -1.6177,1.3611 -3.841,4.2385 -4.9407,6.3941 -1.0997,2.1555 -3.4955,5.5864 -5.324,7.6242 -1.8285,2.0377 -4.2375,5.5049 -5.3533,7.7049 -1.1159,2.2 -3.8756,5.7058 -6.1326,7.7907 -2.2571,2.0849 -5.0631,5.6849 -6.2356,8 -2.6756,5.2829 -6.6709,10.2558 -14.5235,18.0774 -3.386,3.3726 -7.0517,7.9349 -8.1462,10.1385 -2.5582,5.1508 -13.8422,19.3198 -25.0568,31.4631 -4.8408,5.2417 -10.9912,12.4167 -13.6676,15.9445 -5.0299,6.6303 -29.3589,31.8944 -58.9732,61.2401 -9.35,9.2652 -17.9,17.8394 -19,19.0538 -1.1,1.2144 -3.2666,3.3518 -4.8147,4.7499 -1.5481,1.3981 -5.3773,5.0863 -8.5094,8.1959 -3.1321,3.1096 -8.4372,7.6728 -11.7891,10.1403 -3.3519,2.4675 -7.0901,5.8847 -8.307,7.5938 -1.217,1.709 -4.2428,4.5041 -6.724,6.2112 -2.4813,1.7072 -6.9183,5.4207 -9.8601,8.2524 -11.213,10.7932 -14.1446,13.3568 -18.9957,16.6109 -2.75,1.8447 -7.9937,6.2078 -11.6528,9.6958 -3.659,3.4879 -7.1565,6.3417 -7.7723,6.3417 -0.6158,0 -3.022,1.7313 -5.3472,3.8473 -2.3253,2.1161 -6.3394,5.0687 -8.9204,6.5615 -2.581,1.4927 -7.4281,5.1549 -10.7714,8.138 -3.3434,2.9832 -7.3067,6.0695 -8.8074,6.8584 -1.5007,0.7889 -4.7523,3.5135 -7.2259,6.0546 -2.4736,2.5411 -6.7486,5.6643 -9.5,6.9405 -2.7514,1.2762 -7.5867,4.8449 -10.7451,7.9304 -3.1583,3.0856 -7.2083,6.3618 -9,7.2804 -1.7916,0.9187 -4.4773,2.688 -5.9682,3.9319 -1.4908,1.2439 -6.7816,4.5913 -11.7572,7.4386 -4.9756,2.8474 -9.4739,5.9753 -9.9961,6.9511 -0.5222,0.9757 -4.0675,3.4126 -7.8784,5.4151 -3.8109,2.0026 -9.1933,5.677 -11.9609,8.1652 -2.7675,2.4883 -7.6184,5.668 -10.7796,7.0661 -3.1612,1.398 -7.7312,4.2879 -10.1557,6.422 -2.4244,2.1341 -7.6376,5.5147 -11.5847,7.5125 -3.9472,1.9979 -8.3017,4.6962 -9.6767,5.9964 -2.5836,2.4429 -12.5117,7.463 -14.7935,7.4802 -0.7115,0.01 -3.7489,2.4848 -6.7498,5.5098 -3.0009,3.025 -6.2438,5.5099 -7.2065,5.522 -2.8184,0.035 -10.3028,3.7822 -15.7248,7.8721 -2.764,2.085 -8.6254,5.0254 -13.0254,6.5342 -4.4,1.5089 -9.575,3.9853 -11.5,5.5031 -4.4493,3.5082 -8.7343,5.716 -16.7055,8.6073 -3.4917,1.2665 -8.7793,3.9162 -11.7503,5.8882 -2.971,1.972 -9.5964,4.953 -14.723,6.6244 -5.1267,1.6714 -12.2462,4.7952 -15.8212,6.9418 -3.575,2.1467 -10.775,5.3239 -16,7.0606 -5.225,1.7366 -12.2,4.653 -15.5,6.4808 -3.3,1.8279 -9.7122,4.2648 -14.2493,5.4155 -9.8043,2.4866 -12.1595,3.4581 -18.7507,7.735 -5.0146,3.2538 -9.4236,4.5941 -25.8199,7.8486 -5.4689,1.0856 -10.2182,2.7029 -12.5,4.2569 -5.771,3.9302 -9.693,5.2548 -24.4623,8.2622 -10.2391,2.0849 -15.8948,3.844 -22,6.8427 -6.6619,3.2722 -10.3004,4.3303 -19.2178,5.589 -17.154,2.4211 -21.4418,3.4505 -29.6464,7.117 -5.2036,2.3255 -10.9539,3.915 -18.00004,4.9755 -5.6945,0.8571 -14.4362,2.1844 -19.426,2.9497 -4.9898,0.7652 -14.8898,3.24 -22,5.4995 -11.1482,3.5427 -15.9558,4.4452 -34.9276,6.557 -25.1795,2.8028 -30.2065,3.614 -40.5443,6.5421 -6.9287,1.9625 -13.9959,3.2053 -32.9557,5.7952 -4.125,0.5635 -16.5,1.4977 -27.5,2.0759 -21.6339,1.1374 -55.9193,5.08 -64.0414,7.3644 -2.8518,0.8022 -9.8007,1.4483 -16,1.4877 -6.0272,0.038 -17.4836,0.7623 -25.4586,1.6087 -12.2642,1.3016 -32.4631,1.5199 -131,1.4157 -64.075,-0.068 -118.525,-0.4871 -121,-0.9319 z m 37.5,-775.0115 c -28.0299,-0.7244 -46.9407,-2.7645 -63.8557,-6.8888 -13.3531,-3.2558 -22.7422,-4.595 -38.6443,-5.5118 -16.9723,-0.9785 -30.6567,-3.4164 -40.3703,-7.1919 -6.4284,-2.4986 -13.1859,-4.0937 -24.5471,-5.7943 -17.9274,-2.6834 -34.3513,-6.7555 -41.2773,-10.2343 -2.9315,-1.4724 -7.9004,-2.7489 -12.9363,-3.3232 -10.3498,-1.1805 -17.7216,-3.3204 -24.3769,-7.0765 -3.3734,-1.9038 -10.008,-4.0321 -18.6167,-5.972 -10.5179,-2.3701 -14.7641,-3.8486 -19.8754,-6.9205 -8.0349,-4.829 -9.9957,-5.5699 -21.3922,-8.0837 -5.7741,-1.2735 -11.121,-3.2158 -14.6078,-5.3063 -6.5511,-3.9275 -8.8974,-4.8392 -19.8274,-7.7042 -5.3231,-1.3953 -10.1936,-3.4734 -13.5,-5.76 -2.8449,-1.9675 -9.5133,-5.23 -14.8185,-7.2499 -5.3053,-2.02 -11.6553,-5.0552 -14.1113,-6.7449 -4.876,-3.3548 -9.252,-5.2301 -17.8458,-7.6474 -3.3255,-0.9355 -7.3023,-3.0308 -9.7838,-5.1548 -2.2995,-1.9683 -7.8349,-5.1198 -12.3009,-7.0033 -4.466,-1.8835 -9.7154,-4.8254 -11.6653,-6.5374 -3.4673,-3.0444 -7.0394,-4.8494 -16.1672,-8.1698 -2.4861,-0.9043 -6.985,-3.4963 -9.9976,-5.7599 -3.0125,-2.2636 -7.9989,-5.3885 -11.0808,-6.9443 -3.0818,-1.5557 -6.9527,-3.964 -8.602,-5.3517 -1.6492,-1.3877 -7.0037,-4.5236 -11.899,-6.9686 -4.8952,-2.445 -10.2504,-5.8799 -11.9004,-7.6331 -1.65,-1.7532 -5.925,-4.6786 -9.5,-6.5008 -3.575,-1.8221 -8.075,-4.9595 -10,-6.9718 -1.925,-2.0123 -6.0243,-5.0075 -9.1096,-6.656 -3.0853,-1.6485 -6.5678,-4.2931 -7.7388,-5.877 -1.171,-1.5838 -5.3668,-4.9742 -9.324,-7.5341 -3.9572,-2.5599 -8.0258,-5.7106 -9.0412,-7.0015 -1.0154,-1.2909 -4.5193,-3.971 -7.7864,-5.9556 -3.2671,-1.9846 -6.7411,-4.603 -7.7201,-5.8185 -0.9789,-1.2155 -4.7982,-4.3502 -8.4873,-6.9659 -3.6891,-2.6157 -7.2891,-5.5343 -8,-6.4857 -0.7109,-0.9515 -6.0176,-5.8862 -11.7926,-10.9661 -14.3933,-12.6609 -25.4682,-23.1079 -35.7863,-33.7574 -4.7925,-4.9465 -10.9363,-11.0215 -13.6529,-13.5 -9.964,-9.0909 -15.2668,-14.7706 -33.6168,-36.0064 -4.515,-5.225 -8.9952,-10.175 -9.956,-11 -0.9608,-0.825 -4.5692,-4.875 -8.0186,-9 -3.4495,-4.125 -9.1104,-10.425 -12.5799,-14 -4.447,-4.5824 -7.3557,-8.7737 -9.8592,-14.2071 -2.3933,-5.1942 -4.7051,-8.5872 -7.0903,-10.4065 -1.9465,-1.4846 -4.6268,-4.5554 -5.9562,-6.8239 -1.3294,-2.2684 -3.8233,-5.4605 -5.542,-7.0935 -1.7188,-1.6329 -3.9543,-4.544 -4.9679,-6.469 -1.0135,-1.925 -4.1223,-5.8853 -6.9084,-8.8007 -2.786,-2.9154 -5.0655,-5.8829 -5.0655,-6.5944 0,-0.7116 -2.25,-3.8649 -5,-7.0075 -2.75,-3.1426 -5,-6.1138 -5,-6.6026 0,-0.4889 -2.2667,-3.8836 -5.037,-7.5437 -2.7704,-3.6602 -6.3528,-9.2613 -7.9609,-12.447 -1.6081,-3.1856 -4.7566,-7.9097 -6.9967,-10.4978 -2.24,-2.5882 -5.1475,-6.8267 -6.4611,-9.4189 -1.3136,-2.5922 -3.1363,-5.3339 -4.0506,-6.0927 -0.9143,-0.7587 -3.2569,-4.5555 -5.2059,-8.4371 -1.9489,-3.8817 -4.8513,-8.7168 -6.4498,-10.7447 -1.5985,-2.0278 -4.2897,-6.7528 -5.9804,-10.5 -1.7882,-3.9633 -4.8151,-8.4917 -7.2367,-10.8266 -2.4454,-2.3578 -4.6649,-5.6899 -5.38,-8.0767 -0.6696,-2.2347 -3.016,-6.846 -5.2144,-10.2473 -6.977,-10.7948 -8.0265,-13.4998 -8.0265,-20.6882 0,-3.6331 0.4428,-7.433 0.984,-8.4442 0.5412,-1.0113 3.2211,-3.2152 5.9553,-4.8976 2.8073,-1.7273 5.6947,-4.4896 6.633,-6.3456 2.1056,-4.1649 5.3945,-7.7867 7.0708,-7.7867 0.712,0 6.1461,-4.7792 12.0757,-10.6204 5.9297,-5.8412 12.8062,-12.2164 15.2812,-14.1671 2.475,-1.9506 7.2,-6.2899 10.5,-9.6427 3.3,-3.3529 10.275,-10.2277 15.5,-15.2775 5.225,-5.0497 10.9624,-10.6688 12.7499,-12.4868 2.6123,-2.6571 11.9854,-11.6009 20.4539,-19.5172 4.0017,-3.7408 10.1595,-9.7102 17.3181,-16.7883 8.1001,-8.0091 18.2705,-17.0729 23.7838,-21.1959 1.615,-1.2078 3.9791,-3.7306 5.2536,-5.6062 1.2745,-1.8756 4.4835,-4.8002 7.131,-6.4991 2.6475,-1.6989 5.6269,-4.4658 6.621,-6.1486 0.9941,-1.6829 4.8182,-5.5411 8.498,-8.5738 13.6895,-11.2822 20.5805,-17.5858 22.8079,-20.8637 1.2597,-1.8538 4.3354,-4.6626 6.8348,-6.2416 2.4994,-1.5791 4.5452,-3.21 4.5462,-3.6242 0,-1.3171 20.3561,-21.2266 24.0018,-23.4789 1.925,-1.1893 7.0894,-5.7861 11.4765,-10.2151 l 7.9766,-8.0529 6.2313,0 6.2313,0 2.4312,4.25 c 1.3371,2.3375 2.9926,6.018 3.6787,8.1789 1.6944,5.3359 13.4653,28.0107 17.4275,33.5711 1.7636,2.475 3.807,6.075 4.541,8 0.7339,1.925 2.8222,5.6201 4.6407,8.2113 1.8184,2.5912 5.3048,8.6906 7.7475,13.5543 2.4427,4.8637 5.2252,9.4936 6.1834,10.2887 0.9581,0.7951 2.9825,4.1457 4.4985,7.4457 1.516,3.3 3.9651,7.35 5.4424,9 1.4773,1.65 3.5976,4.8 4.7119,7 1.1143,2.2 4.1642,6.925 6.7777,10.5 2.6134,3.575 5.477,7.9277 6.3634,9.6726 0.8865,1.745 3.4333,5.2774 5.6598,7.8498 2.2264,2.5724 5.1092,6.7697 6.4062,9.3274 1.297,2.5576 3.3564,5.5502 4.5764,6.6502 1.2199,1.1 4.1936,5.0517 6.6082,8.7815 2.4146,3.7297 5.0607,7.0387 5.8803,7.3532 0.8196,0.3145 3.1656,3.3379 5.2134,6.7186 2.0478,3.3807 7.5679,10.1967 12.267,15.1467 4.6991,4.95 10.0988,11.025 11.9994,13.5 1.9006,2.475 3.839,4.6597 4.3076,4.855 0.4686,0.1952 2.8316,3.0756 5.2513,6.4009 5.1951,7.1397 28.709,31.3654 31.2258,32.1711 0.9597,0.3073 3.035,2.6045 4.6116,5.105 1.6897,2.6797 4.4427,5.3504 6.7054,6.5048 2.1114,1.0771 5.0964,3.5946 6.6335,5.5945 1.537,1.9998 3.6945,4.3634 4.7945,5.2524 1.1,0.8889 4.475,4.0941 7.5,7.1226 3.025,3.0284 6.8329,6.3638 8.4621,7.412 1.6292,1.0482 5.9563,4.7179 9.616,8.155 3.6596,3.4371 8.4718,7.1767 10.6937,8.3103 2.2219,1.1335 5.0947,3.3625 6.384,4.9532 1.2893,1.5907 4.9738,4.5495 8.1877,6.5751 3.2139,2.0256 7.9389,5.6263 10.5,8.0016 2.5611,2.3753 6.7303,5.2255 9.265,6.3338 2.5864,1.1309 5.8436,3.6345 7.4237,5.706 1.7707,2.3215 5.3958,4.9663 9.7702,7.1282 3.8252,1.8905 8.4915,4.7864 10.3695,6.4353 1.8781,1.649 6.2077,4.4005 9.6214,6.1146 3.4137,1.7141 8.7866,5.0465 11.9399,7.4054 3.1532,2.3589 8.6021,5.2437 12.1085,6.4105 3.5065,1.1669 8.5372,3.5686 11.1795,5.3372 2.6422,1.7685 5.9683,4.0009 7.3914,4.9608 1.4231,0.96 5.5124,2.7103 9.0874,3.8896 4.4414,1.4651 7.977,3.5122 11.1636,6.4639 4.7892,4.4361 5.3019,4.6517 15.0611,6.336 3.3928,0.5855 9.5046,2.9772 15.0037,5.8714 5.9742,3.1442 12.127,5.4961 17.2753,6.6036 11.3371,2.4388 17.2421,4.4076 23.106,7.704 2.8103,1.5798 8.4353,3.529 12.5,4.3316 4.0646,0.8025 12.2772,2.3998 18.25,3.5495 7.1246,1.3715 13.1691,3.2534 17.5744,5.4719 7.314,3.6833 13.7261,5.0877 27.5659,6.0376 15.8146,1.0855 37.6039,4.5604 43.9244,7.0049 4.7383,1.8325 10.3678,2.7181 25.5756,4.0232 16.1967,1.3899 28.7322,1.5989 74,1.234 60.1793,-0.4851 74.0449,-1.5209 85.2108,-6.3656 4.23,-1.8354 10.0642,-2.9901 22.5,-4.4532 21.9004,-2.5766 26.6495,-3.5665 33.4138,-6.9644 7.7806,-3.9085 17.6709,-6.8183 25.6481,-7.5458 8.7988,-0.8025 12.3285,-1.9418 16.6463,-5.3732 2.6167,-2.0795 6.9865,-3.6787 16.549,-6.0563 9.1262,-2.2693 14.5616,-4.2215 18.2627,-6.5595 9.6168,-6.0751 12.6643,-7.4539 19.7863,-8.9521 7.8767,-1.6569 11.239,-3.158 15.9472,-7.1197 1.7621,-1.4828 7.5644,-4.3495 12.8939,-6.3704 5.3295,-2.021 11.833,-5.3104 14.4523,-7.3097 2.6193,-1.9994 6.8377,-4.5532 9.3743,-5.6753 2.5366,-1.122 6.471,-3.7536 8.743,-5.8479 2.272,-2.0943 7.4928,-5.4153 11.6016,-7.3801 4.1089,-1.9648 8.8207,-5.0181 10.4707,-6.7851 1.65,-1.767 5.2523,-4.2182 8.0052,-5.4472 2.7529,-1.2289 7.7029,-4.6006 11,-7.4927 3.2971,-2.892 8.0198,-6.423 10.4948,-7.8465 2.475,-1.4236 6.4462,-4.3462 8.8249,-6.4947 2.3786,-2.1484 6.7875,-5.0337 9.7974,-6.4117 3.8651,-1.7695 6.2018,-3.6607 7.9552,-6.4382 1.3654,-2.163 4.6066,-5.2423 7.2026,-6.8431 2.7081,-1.6699 5.5631,-4.4846 6.6982,-6.6038 1.0881,-2.0314 3.6306,-4.7365 5.6499,-6.0112 2.0194,-1.2748 4.9662,-4.2531 6.5486,-6.6184 1.7691,-2.6444 4.8165,-5.3456 7.9129,-7.014 5.1943,-2.7987 10.467,-8.0451 23.4103,-23.294 4.125,-4.8598 11.3461,-13.1462 16.0469,-18.4143 4.7007,-5.2681 11.1007,-12.7284 14.2221,-16.5784 3.1214,-3.85 8.6385,-10.6 12.2602,-15 3.6216,-4.4 7.4325,-9.575 8.4685,-11.5 1.036,-1.925 3.2883,-5.075 5.0051,-7 1.7167,-1.925 4.3983,-5.975 5.9591,-9 1.5607,-3.025 4.0563,-6.625 5.5457,-8 1.4895,-1.375 3.8013,-4.9562 5.1373,-7.9582 1.3361,-3.002 4.2517,-7.8721 6.4792,-10.8224 2.2275,-2.9503 5.1717,-7.9005 6.5427,-11.0006 1.3709,-3.1 3.7698,-7.091 5.3308,-8.8688 1.561,-1.7779 4.0324,-5.6214 5.492,-8.5413 1.4596,-2.9198 3.7188,-6.4337 5.0205,-7.8087 1.3017,-1.375 3.705,-6.1364 5.3408,-10.5808 1.6357,-4.4445 4.7857,-10.8838 6.9999,-14.3096 2.2142,-3.4258 5.0018,-9.2394 6.1946,-12.9192 1.1929,-3.6797 3.8858,-9.6154 5.9844,-13.1904 2.0986,-3.575 5.0373,-10.4659 6.5304,-15.3131 1.4932,-4.8473 3.8064,-10.4215 5.1404,-12.3873 2.9591,-4.3605 4.6872,-8.7783 6.7671,-17.2996 0.8726,-3.575 2.8997,-8.6278 4.5047,-11.2285 2.065,-3.3459 3.7002,-8.4596 5.5927,-17.4892 2.6621,-12.7014 4.0691,-17.8557 6.5558,-24.0162 1.4712,-3.6446 0.7024,-4.6535 -6.1209,-8.0327 -3.3099,-1.6393 -42.7419,-1.7418 -726.1136,-1.8872 -646.5254,-0.1376 -722.9252,-0.3149 -725.5728,-1.684 -1.6276,-0.8417 -3.3765,-2.1225 -3.8864,-2.8463 -0.5659,-0.8031 -0.7324,-74.1826 -0.4272,-188.3159 l 0.5,-187 2.1593,-4 c 1.1876,-2.2 4.4668,-6.863 7.287,-10.3623 2.8202,-3.4992 5.9631,-7.9992 6.9843,-10 1.0211,-2.0007 2.8511,-4.5372 4.0666,-5.6365 1.2156,-1.0993 3.3592,-4.0243 4.7638,-6.5 1.4045,-2.4757 4.4371,-6.5262 6.739,-9.0012 2.3019,-2.475 5.3372,-6.525 6.7449,-9 1.4078,-2.475 3.9524,-5.5251 5.6547,-6.778 1.7023,-1.2528 4.1726,-4.4028 5.4896,-7 1.3171,-2.5971 3.398,-5.622 4.6243,-6.722 1.2263,-1.1 3.9419,-4.5141 6.0345,-7.5868 2.0927,-3.0727 4.9611,-6.3444 6.3743,-7.2703 1.4132,-0.926 3.8715,-4.2619 5.463,-7.4133 2.5096,-4.9695 17.9725,-25.2427 29.9215,-39.2296 2.1144,-2.475 5.1373,-6.8956 6.7177,-9.8236 1.5804,-2.928 4.0472,-6.1593 5.4817,-7.1808 1.4345,-1.0215 3.6985,-3.9771 5.031,-6.568 1.3326,-2.591 3.8774,-5.6596 5.6551,-6.8192 1.8883,-1.2317 4.7911,-4.9475 6.9812,-8.9363 2.062,-3.7553 4.5052,-7.2325 5.4294,-7.7271 0.9241,-0.4947 2.8139,-2.8221 4.1995,-5.1722 1.3855,-2.35 3.9426,-5.6228 5.6824,-7.2728 1.7398,-1.65 4.7825,-5.6616 6.7616,-8.9146 1.9791,-3.253 6.1083,-8.953 9.176,-12.6666 9.9768,-12.0776 14.8177,-18.3524 16.9456,-21.9648 1.1488,-1.9502 3.3765,-4.498 4.9503,-5.6615 1.5738,-1.1636 4.344,-5.097 6.156,-8.7408 1.812,-3.6439 4.1579,-7.0873 5.2132,-7.6521 1.0553,-0.5647 3.4204,-3.3607 5.2558,-6.2132 1.8353,-2.8525 4.5395,-6.3037 6.0093,-7.6693 1.4697,-1.3657 3.6416,-4.0657 4.8264,-6 1.1848,-1.9344 6.2192,-8.8242 11.1876,-15.3107 4.9684,-6.4865 11.0983,-14.6766 13.6221,-18.2003 2.5238,-3.5236 6.2168,-8.2087 8.2067,-10.4113 1.9899,-2.2026 4.4963,-5.7125 5.5697,-7.7997 1.0735,-2.0873 3.3842,-5.1451 5.1349,-6.7951 1.7507,-1.65 4.0169,-4.6204 5.0358,-6.6008 1.019,-1.9805 3.9028,-5.7103 6.4084,-8.2884 2.5057,-2.5782 4.5558,-5.4349 4.5558,-6.3482 0,-0.9134 2.171,-3.7086 4.8245,-6.2116 2.6534,-2.5031 6.4852,-7.026 8.515,-10.051 6.0316,-8.9888 11.418,-16.1564 16.5599,-22.0358 2.6627,-3.0446 5.8581,-7.5446 7.1007,-10 1.2426,-2.4553 3.9629,-6.3254 6.0451,-8.6001 2.0821,-2.2748 4.8949,-5.8748 6.2506,-8 1.3557,-2.1253 3.6883,-4.9891 5.1835,-6.3641 1.4953,-1.375 3.8003,-4.6249 5.1224,-7.222 1.322,-2.5972 3.7099,-5.6878 5.3063,-6.8681 1.5965,-1.1803 4.0403,-4.2304 5.4307,-6.778 1.3904,-2.5475 4.163,-6.2069 6.1613,-8.1319 1.9983,-1.925 4.7709,-5.5844 6.1613,-8.1319 1.3904,-2.5476 3.8293,-5.594 5.4196,-6.7698 1.5904,-1.1758 3.6853,-3.6791 4.6554,-5.5629 2.0738,-4.0272 10.6205,-15.3161 17.9401,-23.6963 2.847,-3.2595 6.5994,-8.7583 8.3386,-12.2195 1.8638,-3.7091 4.3222,-6.9783 5.9871,-7.9617 1.5536,-0.9178 3.7588,-3.5982 4.9005,-5.9566 1.1416,-2.3584 3.6856,-5.8434 5.6532,-7.7446 1.9677,-1.9012 4.7151,-5.5411 6.1055,-8.0886 1.3904,-2.5476 3.8342,-5.5977 5.4307,-6.778 1.5964,-1.1803 4.0223,-4.3555 5.3907,-7.056 1.3685,-2.7006 4.0993,-6.139 6.0686,-7.641 1.9692,-1.502 4.4147,-4.3662 5.4343,-6.3649 1.0197,-1.9987 3.1772,-4.9602 4.7944,-6.5811 1.6173,-1.6209 4.5545,-5.506 6.5271,-8.6335 1.9727,-3.1275 4.4952,-6.1726 5.6055,-6.7668 1.1104,-0.5943 3.8021,-4.1104 5.9817,-7.8136 2.1796,-3.7033 8.1119,-11.6832 13.1829,-17.7332 5.071,-6.05 10.2543,-13.3214 11.5184,-16.1587 1.3455,-3.02 3.8007,-6.3045 5.922,-7.9225 1.9929,-1.5201 4.6748,-4.8237 5.9597,-7.3413 1.2849,-2.5176 3.7694,-5.9275 5.521,-7.5775 1.7517,-1.65 4.0265,-4.6359 5.0551,-6.6354 1.0287,-1.9994 3.7266,-5.1773 5.9954,-7.0619 2.2689,-1.8846 5.3235,-5.4776 6.7882,-7.9844 4.5736,-7.8279 9.4271,-14.121 15.1227,-19.6083 l 5.4909,-5.2899 -0.296,-6.7101 c -0.3615,-8.1969 -1.4793,-9.5953 -12.0771,-15.1089 -4.2075,-2.189 -9.3173,-5.3049 -11.355,-6.9243 -3.4782,-2.7641 -10.1792,-5.8563 -20.7922,-9.5948 -2.5133,-0.8853 -6.2547,-3.1531 -8.3141,-5.0395 -2.0595,-1.8863 -5.4031,-3.9742 -7.4303,-4.6396 -4.4189,-1.4505 -10.1525,-4.9461 -12.2006,-7.4383 -0.8169,-0.994 -5.3103,-3.5679 -9.9853,-5.7196 -4.675,-2.1518 -9.85,-5.1808 -11.5,-6.7311 -1.65,-1.5503 -6.6,-4.7178 -11,-7.0389 -4.4,-2.3211 -9.575,-5.5693 -11.5,-7.2183 -3.1583,-2.7055 -6.9107,-5.0973 -24.9959,-15.9325 -3.0227,-1.8109 -7.5227,-5.3774 -10,-7.9255 -2.4772,-2.548 -7.6568,-6.4483 -11.51,-8.6673 -3.8533,-2.219 -7.9033,-5.0327 -9,-6.2528 -1.0968,-1.22 -4.4691,-3.7838 -7.4941,-5.6974 -3.025,-1.9136 -7.75,-5.609 -10.5,-8.212 -2.75,-2.6031 -7.475,-6.4571 -10.5,-8.5645 -3.025,-2.1074 -6.0582,-4.6155 -6.7404,-5.5736 -0.6823,-0.958 -4.1639,-3.828 -7.7369,-6.3776 -3.573,-2.5497 -6.9582,-5.4987 -7.5227,-6.5535 -0.5645,-1.0548 -4.0579,-4.0388 -7.7632,-6.6313 -3.7052,-2.5924 -9.168,-6.9984 -12.1396,-9.7911 -9.4366,-8.8687 -22.2142,-21.9332 -24.256,-24.8006 -1.0845,-1.5231 -3.9768,-3.9442 -6.4272,-5.3802 -2.6737,-1.567 -5.4705,-4.3434 -6.9942,-6.9434 -1.3964,-2.3829 -3.8167,-5.1472 -5.3784,-6.1429 -1.5617,-0.9958 -8.5622,-7.998 -15.5568,-15.5605 -6.9946,-7.5625 -13.0268,-13.75 -13.405,-13.75 -0.3781,0 -3.0311,-3.0826 -5.8954,-6.8503 -2.8643,-3.7677 -7.0091,-8.5169 -9.2105,-10.5537 -2.2015,-2.0369 -5.5747,-6.825 -7.496,-10.6403 -1.9214,-3.8154 -5.5149,-9.0467 -7.9856,-11.6252 -2.4706,-2.5786 -4.4921,-5.0304 -4.4921,-5.4486 0,-0.4181 -1.8141,-2.8563 -4.0313,-5.4181 -2.2173,-2.5618 -5.5684,-7.0606 -7.4469,-9.9972 -1.8786,-2.9367 -4.2735,-5.7985 -5.3221,-6.3597 -1.0486,-0.5612 -3.6113,-4.3023 -5.695,-8.3136 -2.0838,-4.0113 -5.2362,-9.0933 -7.0055,-11.2933 -1.7693,-2.2 -4.452,-6.475 -5.9615,-9.5 -1.5096,-3.025 -4.2402,-7.075 -6.0681,-9 -1.828,-1.925 -4.0974,-5.525 -5.0433,-8 -0.9459,-2.475 -3.2046,-6.4553 -5.0193,-8.8452 -1.8148,-2.3899 -4.715,-7.7899 -6.4449,-12 -1.7299,-4.2101 -4.5102,-9.3857 -6.1783,-11.5012 -1.6682,-2.1156 -4.3522,-7.2906 -5.9645,-11.5 -1.6122,-4.2095 -4.3226,-9.3974 -6.0231,-11.5288 -1.7004,-2.1313 -4.3696,-7.3008 -5.9316,-11.4876 -1.5619,-4.1869 -3.6859,-8.7568 -4.72,-10.1555 -2.9066,-3.9313 -5.6627,-9.8444 -7.9881,-17.1376 -1.1672,-3.6608 -3.4828,-8.8447 -5.1457,-11.5199 -1.663,-2.6751 -4.1017,-8.3581 -5.4194,-12.6288 -1.3176,-4.2707 -4.0041,-10.1117 -5.9699,-12.9801 -2.5016,-3.6503 -4.3386,-8.2162 -6.1215,-15.2153 -1.401,-5.5 -4.0516,-12.925 -5.8903,-16.5 -1.8386,-3.575 -4.2933,-10.6546 -5.4549,-15.7324 -1.1615,-5.0778 -3.6344,-12.2778 -5.4952,-16 -4.4376,-8.8765 -5.4515,-12.1827 -7.0814,-23.094 -0.8639,-5.783 -2.4986,-11.5434 -4.4736,-15.7638 -3.8359,-8.1972 -5.4948,-14.5999 -7.6195,-29.4098 -1.0079,-7.0245 -2.7966,-14.3789 -4.5964,-18.8976 -3.8454,-9.6547 -4.4144,-12.3992 -6.8562,-33.0701 -1.3822,-11.7003 -3.0021,-20.3644 -4.9482,-26.4639 -3.2745,-10.2634 -4.6047,-18.3727 -6.0807,-37.0684 -1.7608,-22.3029 -4.9242,-47.4282 -8.6244,-68.5 -1.8634,-10.6112 -3.4355,-49.0555 -3.8235,-93.5 -0.1633,-18.7 -0.8194,-40.075 -1.4581,-47.5 -1.6549,-19.2406 -1.793,-38.7564 -0.3645,-51.5 0.6781,-6.05 1.7065,-34.625 2.2853,-63.5 0.6459,-32.2199 1.6236,-57.705 2.5313,-65.9745 1.5144,-13.798 1.814,-15.8186 5.416,-36.5255 2.5402,-14.603 5.0318,-46.3182 5.0332,-64.0663 0,-16.1514 1.2766,-23.7051 4.8847,-28.9337 4.0861,-5.9212 4.9084,-8.6667 7.0381,-23.5 1.3831,-9.6335 2.8256,-15.5797 5.0364,-20.7613 1.9067,-4.4688 3.6895,-11.1987 4.6358,-17.5 2.2011,-14.6565 4.0491,-22.2791 6.9232,-28.5569 1.3847,-3.0246 3.2037,-9.3654 4.0423,-14.0906 3.1933,-17.9928 4.7917,-23.7619 8.4757,-30.5912 2.8685,-5.3175 4.0279,-8.9378 4.8238,-15.0621 1.2101,-9.3116 2.2595,-12.494 5.8315,-17.6858 1.4183,-2.0614 4.1148,-9.0364 5.9923,-15.5 1.8775,-6.4637 4.2222,-12.8771 5.2105,-14.2521 3.4327,-4.7758 5.1088,-8.9316 7.1354,-17.6914 1.2595,-5.4445 3.32,-10.9091 5.3952,-14.3086 1.8465,-3.025 4.5025,-9.1 5.9022,-13.5 2.197,-6.9066 13.1733,-29.813 18.6881,-39 0.9904,-1.65 3.2658,-6.825 5.0564,-11.5 1.7906,-4.675 4.7274,-10.6446 6.5262,-13.2657 1.7988,-2.6211 3.9795,-7.2045 4.8461,-10.1854 0.8665,-2.9808 3.2037,-7.5527 5.1936,-10.1597 3.5538,-4.6557 8.3346,-13.8133 8.3538,-16.0017 0.01,-0.6119 1.4198,-2.8619 3.1432,-5 1.7233,-2.1381 4.1486,-6.1504 5.3895,-8.9161 1.2408,-2.7658 3.902,-7.1849 5.9137,-9.8204 2.0117,-2.6355 5.2248,-8.0119 7.1402,-11.9476 1.9154,-3.9358 4.558,-8.2916 5.8724,-9.6796 1.3144,-1.3881 3.5455,-5.1547 4.9579,-8.3702 1.4125,-3.2156 4.3152,-7.9406 6.4505,-10.5 2.1353,-2.5595 5.9963,-7.8036 8.5799,-11.6536 2.5837,-3.85 6.2071,-9.25 8.0521,-12 1.845,-2.75 4.9181,-6.8 6.8292,-9 1.9111,-2.2 4.6485,-6.2088 6.083,-8.9084 1.4345,-2.6996 4.3611,-6.4088 6.5036,-8.2426 2.1425,-1.8339 5.2941,-5.8126 7.0036,-8.8417 1.7094,-3.029 3.5598,-5.5073 4.112,-5.5073 0.5521,0 2.5276,-2.382 4.39,-5.2933 1.8623,-2.9114 4.1752,-5.9484 5.1398,-6.7489 0.9646,-0.8005 3.4231,-3.706 5.4635,-6.4566 2.0403,-2.7507 5.6843,-7.0738 8.0977,-9.6071 2.4134,-2.5332 7.088,-7.8719 10.388,-11.8639 3.3,-3.9919 11.4,-12.7706 18,-19.5082 6.6,-6.7376 13.5873,-13.9989 15.5272,-16.1361 5.0134,-5.5231 27.3961,-26.4307 34.2228,-31.9674 3.1625,-2.5649 5.75,-5.0196 5.75,-5.4549 0,-0.4353 3.0375,-3.1646 6.75,-6.0652 3.7125,-2.9007 8.0762,-6.5755 9.6971,-8.1664 1.6209,-1.5908 4.5459,-3.7151 6.5,-4.7205 1.9541,-1.0054 5.6944,-3.8906 8.3118,-6.4115 2.6174,-2.5209 6.6674,-5.8114 9,-7.3123 2.3326,-1.5009 7.0701,-5.3296 10.5277,-8.5083 3.4576,-3.1787 6.9456,-5.7794 7.7511,-5.7794 0.8055,0 3.1515,-1.7303 5.2134,-3.8451 2.0619,-2.1148 7.5739,-6.3121 12.2489,-9.3273 4.675,-3.0151 9.1451,-6.268 9.9335,-7.2284 0.7884,-0.9605 4.6134,-3.2613 8.5,-5.113 3.8866,-1.8516 8.8085,-5.019 10.9377,-7.0385 2.1291,-2.0196 7.1322,-5.158 11.1179,-6.9744 3.9856,-1.8163 8.8313,-4.6938 10.7682,-6.3943 1.9368,-1.7006 6.889,-4.6266 11.0047,-6.5022 4.5398,-2.0689 8.2865,-4.5384 9.5256,-6.2786 1.4215,-1.9962 4.1207,-3.589 8.8775,-5.2385 8.3958,-2.9114 12.3504,-4.8514 18.9458,-9.2943 2.811,-1.8936 8.886,-4.6254 13.5,-6.0706 5.8443,-1.8305 9.8346,-3.8277 13.1543,-6.5838 3.3278,-2.7628 7.6157,-4.9058 14.2146,-7.1043 5.1972,-1.7314 11.1528,-4.3108 13.2348,-5.7319 5.826,-3.9767 11.1325,-6.0315 18.7854,-7.2741 4.8313,-0.7844 10.4079,-2.8166 18,-6.5593 7.4682,-3.6817 14.0016,-6.0758 20.3487,-7.4565 5.1418,-1.1184 10.9918,-2.8813 13,-3.9175 2.0082,-1.0362 5.9013,-3.0365 8.6513,-4.4451 2.9741,-1.5234 9.4569,-3.3448 16,-4.4954 6.05,-1.0638 14.15,-3.1494 18,-4.6347 14.7639,-5.6959 17.8901,-6.5856 28.2867,-8.0507 16.981,-2.393 25.7491,-4.3397 31.589,-7.0132 7.1554,-3.2759 22.3432,-6.0951 39.9021,-7.4068 15.0635,-1.1253 26.9059,-2.9151 40.2371,-6.0813 4.4767,-1.0632 13.2798,-2.3577 19.5623,-2.8767 6.2825,-0.519 14.3478,-1.6403 17.9228,-2.4917 9.2424,-2.2013 140.3814,-2.2654 165.2297,-0.081 21.8113,1.9176 38.7751,4.0612 46.7703,5.9103 13.575,3.1394 42.3549,6.5423 55.6431,6.579 5.5377,0.015 10.0328,0.933 20,4.0827 20.0324,6.3305 22.0533,6.8167 35.3569,8.5063 15.8319,2.0107 23.2056,3.8646 29.5,7.4168 4.6738,2.6377 10.245,4.0418 28,7.0565 7.5049,1.2744 13.0135,3.5013 18.3121,7.403 1.8216,1.3414 5.8716,2.9683 9,3.6154 17.3044,3.5796 22.9688,5.2317 27.1617,7.9223 6.4698,4.1516 11.0174,5.8779 21.2383,8.0621 6.7235,1.4368 10.1341,2.77 13.6279,5.3267 2.563,1.8757 8.71,4.8293 13.66,6.5636 4.95,1.7343 11.4431,4.7665 14.4292,6.7381 2.9861,1.9716 9.6578,5.0958 14.826,6.9426 5.8765,2.1 10.9285,4.669 13.4853,6.8576 2.2573,1.9322 7.8018,4.901 12.3794,6.6288 4.5601,1.721 9.9985,4.5859 12.0855,6.3663 4.6339,3.9531 8.9868,6.2504 15.5178,8.1899 2.9426,0.8739 6.6861,3.0598 9.1856,5.3638 4.0415,3.7254 12.1493,7.9773 15.2114,7.9773 0.7999,0 3.3501,1.9242 5.6671,4.276 2.317,2.3518 7.3627,6.1368 11.2127,8.4111 3.85,2.2744 8.35,5.5677 10,7.3185 1.65,1.7509 5.475,4.4483 8.5,5.9944 3.025,1.5461 6.85,4.2618 8.5,6.0349 1.65,1.7731 5.475,4.8074 8.5,6.7428 3.025,1.9354 7.7921,5.5897 10.5936,8.1206 2.8014,2.5309 6.8514,5.6427 9,6.915 2.1485,1.2723 4.9853,3.7527 6.3039,5.5121 1.3186,1.7593 4.3136,4.5433 6.6556,6.1867 6.6708,4.681 18.3717,14.4954 23.9046,20.0506 2.7733,2.7845 6.782,6.3347 8.9082,7.8893 2.1263,1.5546 4.7478,4.3213 5.8256,6.1481 1.0779,1.8268 4.1488,4.6683 6.8243,6.3146 2.6755,1.6462 5.3703,3.9382 5.9885,5.0933 1.4594,2.7269 18.351,19.4727 24.2008,23.992 2.4918,1.925 5.7174,5.1503 7.1681,7.1674 1.4508,2.017 9.6426,11.692 18.2041,21.5 8.5615,9.8079 19.4715,22.3261 24.2445,27.8181 4.773,5.4921 12.3284,13.8171 16.7897,18.5 4.7256,4.9604 9.7007,11.4364 11.919,15.5145 2.0941,3.85 6.0939,9.5313 8.8885,12.6251 7.3296,8.1144 11.8475,13.7471 15.1393,18.8749 1.5889,2.475 5.0382,6.8988 7.6653,9.8306 2.627,2.9318 4.7764,5.9886 4.7764,6.7928 0,0.8043 1.9696,3.5805 4.3769,6.1694 2.4073,2.589 5.801,7.5441 7.5417,11.0113 1.7407,3.4673 6.0511,9.7482 9.5788,13.9575 7.622,9.0947 13.016,19.0453 12.022,22.1772 -0.3732,1.176 -2.3644,3.2538 -4.4247,4.6172 -2.0604,1.3635 -4.6999,4.1761 -5.8656,6.2501 -1.1657,2.0741 -3.9598,5.25 -6.2092,7.0576 -2.2493,1.8077 -5.2075,5.0573 -6.5736,7.2213 -1.3661,2.1641 -4.4896,5.1831 -6.9412,6.709 -2.4516,1.5259 -8.4057,7.137 -13.2313,12.4691 -4.8256,5.3321 -11.0973,11.4145 -13.9372,13.5164 -2.8398,2.102 -6.9597,6.049 -9.1553,8.7711 -2.1955,2.7222 -7.1903,8.0994 -11.0996,11.9494 -12.1248,11.9411 -14.2178,14.0657 -27.0817,27.49 -19.4462,20.2934 -20.3317,21.2645 -23.177,25.4155 -1.4724,2.1481 -4.6224,5.1253 -7,6.6159 -2.3777,1.4907 -7.473,6.205 -11.323,10.4762 -3.85,4.2712 -8.4977,9.1691 -10.3281,10.8841 -8.8148,8.259 -39.8868,39.7616 -41.493,42.0679 -1.0015,1.4383 -3.5798,3.7253 -5.7294,5.0823 -2.1496,1.357 -4.7736,4.1631 -5.831,6.2358 -1.1589,2.2717 -3.9473,5.0805 -7.0205,7.0719 -2.8039,1.8168 -5.098,3.7013 -5.098,4.1876 0,0.7594 -4.4659,5.6692 -15,16.4907 -1.375,1.4126 -4.9483,4.7989 -7.9407,7.5252 -5.1974,4.7352 -5.6976,4.9569 -11.1819,4.9569 -6.4776,0 -7.3788,-0.7952 -12.1603,-10.7298 -1.3844,-2.8764 -3.8495,-6.9264 -5.4781,-9 -1.6285,-2.0736 -3.9477,-6.0202 -5.1536,-8.7702 -1.206,-2.75 -3.27,-6.1251 -4.5869,-7.5003 -1.3168,-1.3751 -4.2308,-6.4196 -6.4756,-11.2098 -2.2448,-4.7903 -5.6002,-10.3199 -7.4565,-12.2881 -1.8562,-1.9682 -4.1574,-5.2488 -5.1136,-7.2902 -0.9563,-2.0414 -3.2381,-5.3879 -5.0706,-7.4367 -1.8326,-2.0488 -4.868,-6.7753 -6.7454,-10.5033 -4.3396,-8.6173 -27.5159,-38.2292 -41.5304,-53.0628 -2.9665,-3.1398 -6.4733,-7.4178 -7.7927,-9.5066 -1.3195,-2.0887 -3.05,-4.0475 -3.8455,-4.3528 -0.7955,-0.3052 -2.7963,-2.4212 -4.4462,-4.7022 -6.9436,-9.5996 -43.7173,-47.0206 -50.5149,-51.4041 -3.729,-2.4047 -6.3228,-4.7597 -20.5071,-18.6189 -3.025,-2.9557 -8.4361,-6.9873 -12.0246,-8.9591 -3.5885,-1.9718 -7.8635,-4.9943 -9.5,-6.7167 -1.6365,-1.7224 -4.7076,-4.0223 -6.8248,-5.111 -2.1172,-1.0887 -5.7172,-3.6921 -8,-5.7852 -2.2828,-2.0932 -7.9756,-5.7178 -12.6506,-8.0547 -4.675,-2.3369 -10.1742,-5.7541 -12.2204,-7.5939 -2.0462,-1.8397 -6.5462,-4.7657 -10,-6.5022 -3.4538,-1.7364 -7.9049,-4.6172 -9.8913,-6.4017 -2.0961,-1.8831 -6.5022,-4.1945 -10.5,-5.5083 -8.3135,-2.7321 -11.7782,-4.4317 -16.3883,-8.039 -1.925,-1.5063 -7.55,-4.1917 -12.5,-5.9676 -4.95,-1.776 -11.488,-4.7212 -14.5288,-6.5449 -3.5337,-2.1194 -10.9312,-4.8047 -20.5,-7.4416 -10.1985,-2.8103 -15.7682,-4.8659 -17.4712,-6.4478 -4.01,-3.7248 -8.0091,-5.2405 -15.786,-5.983 -9.2159,-0.88 -16.6757,-2.82 -25.1574,-6.5426 -9.6588,-4.2393 -17.8937,-5.8567 -40.5566,-7.9654 -6.05,-0.5629 -14.825,-1.9024 -19.5,-2.9766 -20.3643,-4.6791 -26.889,-6.0694 -33,-7.0313 -8.0799,-1.272 -120.844,-1.3808 -137,-0.1323 -6.325,0.4888 -14.425,1.7918 -18,2.8956 -10.1129,3.1225 -24.3261,5.998 -38,7.6879 -16.2054,2.0028 -22.2868,3.2506 -27.91,5.7263 -5.3768,2.3672 -19.605,6.1192 -33.2408,8.7656 -6.3337,1.2292 -12.0051,3.0993 -16.5,5.4408 -3.7671,1.9624 -10.6742,4.4749 -15.3492,5.5834 -14.9688,3.5495 -19.3656,5.1025 -25.736,9.0905 -4.1087,2.5721 -9.0084,4.5494 -14.3631,5.7963 -7.1297,1.6601 -8.6963,2.4485 -12.764,6.4231 -4.017,3.925 -5.5024,4.6851 -11.1107,5.6855 -7.7303,1.379 -8.815,1.8924 -16.3893,7.7566 -3.2246,2.4967 -9.0476,5.8354 -12.9398,7.4194 -3.8922,1.5839 -8.9987,4.4548 -11.3478,6.3796 -2.349,1.9249 -7.3261,5.0137 -11.0601,6.864 -3.7341,1.8502 -8.5493,4.768 -10.7004,6.484 -2.1512,1.7159 -6.4262,4.5268 -9.5,6.2465 -3.0739,1.7196 -7.1638,4.5838 -9.0888,6.3647 -1.925,1.7809 -5.5115,4.4835 -7.9699,6.0058 -2.4585,1.5223 -6.7335,4.876 -9.5,7.4527 -2.7666,2.5767 -7.2798,6.2074 -10.0294,8.0682 -2.7497,1.8609 -6.0379,4.6176 -7.3072,6.1261 -1.2694,1.5086 -4.8697,4.3113 -8.0007,6.2283 -3.131,1.9171 -6.5928,4.8787 -7.6928,6.5813 -1.1,1.7026 -4.25,4.8567 -7,7.009 -2.75,2.1523 -9.275,8.4898 -14.5,14.0833 -5.225,5.5935 -11.8559,11.6975 -14.7354,13.5645 -2.8794,1.8669 -5.9551,4.7863 -6.8348,6.4874 -0.8797,1.7012 -3.2835,4.9541 -5.3419,7.2287 -2.0583,2.2746 -5.3761,6.8631 -7.3728,10.1967 -1.9967,3.3336 -5.3617,8.0586 -7.4776,10.5 -2.116,2.4414 -4.9169,6.0139 -6.2243,7.9389 -1.3073,1.925 -4.0632,5.3678 -6.1241,7.6506 -2.0608,2.2828 -4.6311,5.8828 -5.7116,8 -1.0806,2.1172 -2.9618,4.7494 -4.1804,5.8494 -1.2187,1.1 -3.4741,4.475 -5.012,7.5 -1.5378,3.025 -4.2348,6.85 -5.9931,8.5 -1.7583,1.65 -4.9696,6.8159 -7.136,11.4798 -2.1665,4.6638 -4.7905,9.3888 -5.831,10.5 -1.0406,1.1111 -3.3025,5.1678 -5.0265,9.0149 -1.7239,3.8471 -4.246,8.4521 -5.6045,10.2332 -1.3585,1.7811 -4.2232,7.051 -6.3659,11.7109 -2.1427,4.66 -5.0617,10.18 -6.4867,12.2669 -1.425,2.0869 -3.9709,8.2524 -5.6575,13.7012 -1.7344,5.6031 -4.5415,12.0511 -6.4616,14.8424 -3.2843,4.7745 -4.2341,7.2844 -6.3091,16.6711 -0.5375,2.4313 -1.9048,5.5813 -3.0386,7 -3.4218,4.282 -5.1941,8.051 -7.2148,15.3429 -1.0587,3.8206 -3.4992,10.9752 -5.4233,15.8991 -1.924,4.9239 -4.0163,11.197 -4.6495,13.9402 -1.0983,4.7578 -1.033,5.106 1.417,7.556 1.466,1.4659 4.4415,2.9302 6.9322,3.4113 2.4001,0.4637 306.1196,0.8626 674.9323,0.8865 593.6901,0.039 671.1488,0.2159 675.6302,1.5468 2.7839,0.8267 5.5784,2.1258 6.21,2.8868 0.8556,1.031 1.138,47.7824 1.1075,183.357 -0.045,201.9478 0.5621,184.3517 -6.9203,200.4598 -2.257,4.859 -5.3874,9.7426 -7.5594,11.7932 -2.0389,1.925 -4.3528,4.7327 -5.142,6.2393 -0.7891,1.5066 -3.3382,4.951 -5.6647,7.6543 -2.3264,2.7032 -5.4595,6.8705 -6.9625,9.2607 -1.5031,2.3901 -5.6474,7.9457 -9.2098,12.3457 -3.5623,4.4 -9.3803,12.275 -12.9288,17.5 -3.5484,5.225 -7.3849,10.0622 -8.5254,10.7492 -1.1406,0.6871 -3.4164,3.909 -5.0573,7.1597 -1.641,3.2508 -4.3578,6.889 -6.0374,8.085 -1.6797,1.196 -3.9306,3.8931 -5.0022,5.9936 -1.0716,2.1005 -3.4913,5.1001 -5.3771,6.6658 -1.8859,1.5657 -4.4549,4.6467 -5.7091,6.8467 -1.2542,2.2 -4.5618,6.5823 -7.3503,9.7385 -11.3595,12.8575 -13.4097,15.443 -15.4507,19.4849 -1.173,2.3229 -3.5996,5.6979 -5.3925,7.5 -1.7929,1.8021 -4.3527,4.8516 -5.6884,6.7766 -1.3358,1.925 -6.9534,9.4764 -12.4835,16.781 -5.5301,7.3045 -11.5355,15.3701 -13.3452,17.9235 -1.8098,2.5535 -4.8278,6.3442 -6.7067,8.424 -1.879,2.0798 -4.3416,5.5951 -5.4725,7.8118 -1.1308,2.2168 -3.2424,4.8077 -4.6924,5.7578 -1.4499,0.95 -3.6722,4.0699 -4.9385,6.9332 -1.3059,2.9529 -3.851,6.4312 -5.881,8.0373 -1.9683,1.5573 -4.8927,5.1473 -6.4987,7.9777 -1.6059,2.8305 -4.3026,6.1309 -5.9925,7.3342 -1.6899,1.2034 -3.9652,3.9375 -5.0561,6.0759 -1.0909,2.1384 -3.4432,5.5333 -5.2273,7.5443 -5.0395,5.6802 -13.1357,16.1578 -18.8539,24.3993 -2.862,4.125 -6.9012,9.3678 -8.9758,11.6506 -2.0747,2.2828 -4.6667,5.8828 -5.76,8 -1.0933,2.1172 -2.9387,4.4241 -4.1007,5.1264 -1.1621,0.7024 -3.6253,3.6274 -5.4737,6.5 -1.8484,2.8727 -5.21,7.1544 -7.4703,9.5151 -2.2602,2.3607 -4.1095,4.9751 -4.1095,5.8099 0,0.8347 -2.1608,3.8533 -4.8018,6.7079 -2.641,2.8545 -5.6317,6.5401 -6.646,8.1901 -1.0144,1.65 -3.4,4.3085 -5.3015,5.9079 -1.9014,1.5993 -4.2888,4.8482 -5.3054,7.2197 -1.0165,2.3715 -3.5882,6.2379 -5.7149,8.5921 -2.1266,2.3542 -4.9541,5.8553 -6.2833,7.7803 -2.9182,4.2262 -13.319,17.4752 -19.5315,24.88 -2.4825,2.959 -5.6249,7.5729 -6.983,10.253 -1.3581,2.6801 -3.3749,5.4341 -4.4817,6.12 -1.1068,0.6858 -3.2215,3.047 -4.6993,5.247 -1.4777,2.2 -4.2943,5.8 -6.2591,8 -1.9648,2.2 -4.5895,6.1014 -5.8328,8.6697 -1.2432,2.5683 -3.8169,5.8569 -5.7193,7.3079 -1.9024,1.4511 -4.3253,4.3367 -5.3844,6.4125 -1.059,2.0759 -3.1048,4.8623 -4.5462,6.1921 -1.4415,1.3298 -4.1625,4.7761 -6.0469,7.6584 -1.8843,2.8823 -4.6091,6.2573 -6.0551,7.5 -1.446,1.2427 -4.1472,4.6195 -6.0027,7.5042 -1.8555,2.8846 -5.4297,7.7691 -7.9428,10.8545 -2.513,3.0853 -5.7347,7.4752 -7.1593,9.7552 -1.4245,2.28 -4.028,5.5593 -5.7855,7.2873 -1.7575,1.728 -4.1498,5.1719 -5.3161,7.6531 -1.1663,2.4813 -3.5455,5.526 -5.287,6.7661 -1.7416,1.2401 -4.0165,4.1761 -5.0553,6.5246 -1.0388,2.3484 -3.7308,5.7288 -5.9823,7.5119 -2.2514,1.7832 -4.8929,5.1071 -5.8699,7.3865 -0.9771,2.2794 -3.1499,5.3 -4.8285,6.7124 -1.6786,1.4125 -4.4656,4.8655 -6.1933,7.6734 -1.7277,2.8079 -4.4399,6.0299 -6.0272,7.1602 -1.5872,1.1302 -4.328,4.7606 -6.0906,8.0675 -1.7626,3.307 -3.9886,6.4322 -4.9466,6.9449 -0.9581,0.5128 -2.7504,2.6255 -3.983,4.695 -1.2326,2.0694 -4.3721,6.0126 -6.9768,8.7626 -2.6046,2.75 -5.9866,7.025 -7.5154,9.5 -3.3323,5.3945 -17.6989,24.1355 -19.9063,25.9674 -0.8596,0.7135 -2.9366,3.8745 -4.6156,7.0245 -1.6789,3.1501 -4.379,6.708 -6,7.9065 -1.6211,1.1985 -4.0111,3.8492 -5.3112,5.8903 -1.3001,2.0412 -3.554,4.9819 -5.0086,6.5349 -1.4546,1.5529 -3.7287,4.9628 -5.0537,7.5775 -1.3249,2.6146 -3.9918,5.9612 -5.9264,7.4368 -1.9346,1.4756 -4.9661,5.4008 -6.7366,8.7226 -1.7706,3.3219 -4.4451,6.9127 -5.9434,7.9796 -2.5598,1.8227 -11.9437,15.6743 -11.9437,17.6301 0,1.2806 9.6859,10.514 14.9283,14.231 2.4356,1.7269 8.6384,4.4558 13.784,6.0642 7.0679,2.2093 10.4583,3.895 13.8652,6.8939 2.7601,2.4295 7.3688,5.0124 11.879,6.6573 4.0531,1.4783 9.652,4.4029 12.4419,6.4992 2.7899,2.0963 8.0122,4.7897 11.6051,5.9854 3.5929,1.1956 8.662,3.7018 11.2645,5.5693 2.6026,1.8675 8.3392,5.1507 12.7479,7.296 4.4088,2.1452 10.0092,5.5658 12.4455,7.6013 2.4363,2.0354 6.9649,4.9806 10.0636,6.5448 3.0987,1.5643 7.8286,4.5193 10.5109,6.5667 2.6823,2.0474 8.0466,5.1688 11.9205,6.9364 3.874,1.7675 9.0441,4.8875 11.4891,6.9333 2.445,2.0458 7.0709,5.0449 10.2796,6.6646 3.2087,1.6198 7.5083,4.4493 9.5545,6.2878 2.0462,1.8386 6.4615,4.7208 9.8118,6.4051 3.3503,1.6842 8.4665,5.0895 11.3692,7.5672 2.9028,2.4778 7.8117,5.693 10.9086,7.1449 3.0969,1.4519 7.4308,4.3775 9.6308,6.5014 2.2,2.124 6.704,5.197 10.0088,6.829 3.5922,1.774 7.3306,4.6121 9.2954,7.0569 1.8075,2.2493 4.7285,4.823 6.4911,5.7194 1.7626,0.8964 5.7013,3.9349 8.7528,6.7522 5.1829,4.7854 11.9444,10.0211 24.2316,18.7634 2.8145,2.0025 7.3904,5.7378 10.1688,8.3006 10.672,9.844 19.1876,17.2018 22.5515,19.4854 1.925,1.3068 6.4816,5.3453 10.1257,8.9746 3.6441,3.6292 10.3941,10.2692 15,14.7556 4.6059,4.4864 9.7319,9.6614 11.3912,11.5 1.6593,1.8386 4.2817,4.4679 5.8275,5.8429 5.3249,4.7366 16.6556,17.0446 16.6556,18.0922 0,0.5774 2.8125,3.8792 6.25,7.3374 5.8251,5.8601 10.3654,10.7953 22.6044,24.5704 2.6876,3.025 5.6064,6.914 6.486,8.6421 0.8797,1.7282 3.3901,4.5604 5.5788,6.2939 2.1886,1.7334 5.0147,4.8851 6.2801,7.0038 3.0821,5.1604 9.1749,13.0128 15.4449,19.9053 2.8293,3.1102 5.823,7.2927 6.6528,9.2945 0.8298,2.0017 3.0284,5.3767 4.8859,7.5 3.7573,4.2949 8.7392,11.4512 16.4923,23.6906 2.8464,4.4934 6.2795,9.5198 7.6292,11.1698 1.3497,1.65 3.9002,5.475 5.6678,8.5 1.7676,3.025 4.2836,6.6357 5.5911,8.0238 1.3076,1.388 3.9121,5.6773 5.788,9.5317 1.8758,3.8544 4.5273,8.3437 5.8923,9.9763 1.3649,1.6325 3.9804,5.6682 5.8122,8.9682 1.8317,3.3 4.8226,7.7732 6.6463,9.9404 1.8236,2.1673 4.0992,6.4271 5.0568,9.4662 0.9812,3.1139 3.0795,6.8644 4.8075,8.5926 1.6864,1.6868 4.5385,6.652 6.3378,11.0338 1.7994,4.3819 4.3794,9.6787 5.7334,11.7707 1.354,2.092 4.0399,7.267 5.9687,11.5 1.9289,4.233 4.7858,9.7213 6.3487,12.1963 1.563,2.475 4.0504,8.55 5.5275,13.5 1.4772,4.95 4.6331,12.6 7.0132,17 2.3801,4.4 5.0726,10.925 5.9834,14.5 0.9353,3.6713 3.3277,9.0113 5.4974,12.2708 2.626,3.9447 4.0678,7.4255 4.5567,11 1.1664,8.5297 3.3498,15.7717 7.1173,23.6068 2.3785,4.9466 4.1768,10.8779 5.4573,18 2.0017,11.1333 4.4594,19.7369 5.8907,20.6215 1.6746,1.0349 4.9131,13.1919 5.9942,22.5009 1.3612,11.7221 3.3137,20.7463 7.0778,32.7128 1.8647,5.9277 3.7931,16.09 5.4083,28.5 1.6416,12.612 3.5088,22.402 5.3954,28.2872 3.1195,9.7318 5.2106,26.4261 7.1052,56.7245 0.5752,9.1985 1.9749,22.0235 3.1104,28.5 3.1351,17.8813 3.8418,23.98 3.8775,33.4634 0.018,4.7784 0.662,11.5284 1.4312,15 2.9691,13.4005 3.8989,131.2781 1.651,209.3121 -0.9916,34.4217 -2.713,53.3054 -7.0193,77 -1.0995,6.05 -2.9055,22.475 -4.0134,36.5 -2.1638,27.3932 -2.5703,29.9255 -6.4639,40.2657 -1.7355,4.6091 -3.2024,12.0995 -4.6021,23.5 -3.3348,27.1625 -4.7603,34.6013 -7.9332,41.401 -2.0597,4.4138 -3.2633,9.0706 -3.9715,15.3647 -1.1414,10.1452 -4.3788,23.7819 -6.3871,26.9041 -2.2158,3.4448 -3.6722,8.4881 -6.1765,21.3879 -1.7947,9.2444 -3.2577,13.8705 -5.8552,18.5154 -2.6009,4.6507 -3.9909,9.0508 -5.5842,17.6766 -2.5493,13.801 -3.3615,16.3935 -6.6001,21.0668 -1.431,2.0649 -3.5796,8.0251 -5.0492,14.0062 -1.6071,6.541 -4.0305,13.0885 -6.5187,17.6122 -2.1784,3.9603 -5.0745,10.4754 -6.4358,14.4779 -1.3614,4.0026 -3.594,8.9679 -4.9613,11.0342 -1.3674,2.0662 -4.1025,8.6011 -6.078,14.522 -1.9755,5.9209 -5.3131,13.6903 -7.4169,17.2653 -2.1038,3.575 -4.5209,8.8944 -5.3713,11.8208 -0.8503,2.9265 -2.8789,7.6515 -4.508,10.5 -1.6291,2.8486 -4.5112,8.8537 -6.4046,13.3447 -1.8935,4.491 -4.3361,9.441 -5.4282,11 -1.0921,1.559 -3.6905,6.6595 -5.7744,11.3345 -2.0839,4.675 -5.0507,10.3 -6.593,12.5 -1.5424,2.2 -3.7744,6.6289 -4.9602,9.842 -1.1858,3.2132 -4.1033,8.6865 -6.4835,12.1631 -2.3801,3.4765 -4.8865,8.1867 -5.5697,10.4671 -0.6832,2.2804 -2.9753,6.115 -5.0934,8.5213 -2.1181,2.4063 -4.7791,6.4728 -5.9132,9.0367 -1.1341,2.5638 -3.5355,6.3059 -5.3365,8.3156 -3.6971,4.1257 -5.6124,7.5811 -8.5409,15.408 -1.1146,2.9792 -3.1892,6.5034 -4.6101,7.8315 -1.4209,1.3281 -4.3558,5.3397 -6.522,8.9147 -4.8635,8.0266 -12.2941,18.6647 -15.3668,22 -1.2667,1.375 -4.7629,6.325 -7.7694,11 -3.0065,4.675 -6.4469,9.3749 -7.6454,10.4441 -1.1984,1.0693 -3.3519,4.0992 -4.7855,6.7331 -1.4335,2.634 -3.6606,5.4797 -4.949,6.3239 -1.2884,0.8442 -3.4673,3.7544 -4.8419,6.4672 -2.3828,4.7022 -4.5959,7.321 -17.7661,21.0235 -3.1625,3.2903 -5.75,6.4918 -5.75,7.1143 0,1.0616 -5.6353,7.2037 -17.6492,19.2366 -2.8321,2.8365 -6.065,6.9938 -7.1842,9.2384 -1.1192,2.2446 -3.6565,5.3179 -5.6385,6.8297 -1.982,1.5117 -4.6819,4.4002 -5.9997,6.4189 -3.3982,5.2054 -23.4298,24.8694 -39.3934,38.6703 -5.0895,4.4 -11.2966,10.374 -13.7935,13.2756 -2.497,2.9016 -5.9578,5.9832 -7.6907,6.8481 -1.7329,0.8648 -5.9276,4.3408 -9.3215,7.7243 -8.593,8.5671 -15.8825,14.8301 -22.3293,19.1852 -3.025,2.0435 -7.409,5.612 -9.7423,7.9299 -2.3332,2.318 -6.3334,5.29 -8.8892,6.6046 -2.5559,1.3145 -5.5887,3.6637 -6.7396,5.2204 -1.151,1.5568 -4.5758,4.2422 -7.6108,5.9676 -3.0349,1.7254 -7.9931,5.4694 -11.0181,8.3199 -3.025,2.8506 -7.7783,6.3271 -10.5628,7.7256 -2.7846,1.3985 -5.6544,3.2556 -6.3775,4.1269 -0.7231,0.8713 -4.7448,3.9989 -8.9372,6.9504 -4.1924,2.9515 -8.9589,6.6189 -10.5923,8.1498 -1.6334,1.531 -5.4584,3.9035 -8.5,5.2722 -3.0416,1.3687 -8.3522,4.478 -11.8012,6.9096 -3.4491,2.4315 -8.288,5.3131 -10.7531,6.4036 -2.4651,1.0904 -7.5075,4.3015 -11.2053,7.1357 -3.6978,2.8342 -9.6975,6.3635 -13.3326,7.8428 -3.6351,1.4793 -9.0093,4.5062 -11.9426,6.7264 -2.9334,2.2202 -8.0699,5.024 -11.4144,6.2306 -3.3446,1.2067 -8.9089,4.198 -12.3653,6.6474 -3.6542,2.5896 -9.7713,5.6321 -14.6162,7.2698 -4.5825,1.5489 -10.618,4.389 -13.4123,6.3111 -2.7943,1.9221 -9.0421,4.921 -13.8839,6.6642 -4.8418,1.7432 -11.7283,4.9217 -15.3033,7.0633 -4.1586,2.4913 -10.0905,4.8227 -16.4676,6.4725 -6.7487,1.7459 -11.5928,3.691 -15,6.0231 -5.7038,3.9041 -11.1686,6.0264 -18.199,7.0679 -6.6027,0.9781 -12.0927,3.0106 -15.8283,5.8598 -4.9666,3.7882 -10.1514,5.5285 -21.4613,7.2035 -11.4004,1.6884 -15.0739,2.9109 -22.0315,7.3321 -5.5619,3.5342 -9.7359,4.6658 -22.4187,6.0779 -6.5673,0.7312 -15.0675,2.7316 -25.218,5.9348 -16.8993,5.333 -23.0144,6.525 -41.1228,8.0161 -16.3716,1.3482 -34.6308,4.3982 -40.7614,6.8089 -10.0856,3.966 -34.1453,5.4669 -89.9914,5.6138 -28.05,0.074 -61.8,-0.1448 -75,-0.486 z m 678.3086,-1232.232 3.201,-3.3026 -1.6322,-12.9474 c -1.56,-12.3747 -2.5638,-16.4276 -7.4177,-29.9474 -1.1847,-3.3 -3.0432,-10.725 -4.13,-16.5 -1.4157,-7.5234 -2.9504,-12.2524 -5.4134,-16.6815 -1.8907,-3.3999 -4.581,-10.5999 -5.9784,-16 -1.3975,-5.4002 -3.6084,-11.3935 -4.9133,-13.3185 -1.3048,-1.925 -3.3589,-6.875 -4.5646,-11 -1.2057,-4.125 -4.3802,-11.6153 -7.0545,-16.645 -2.6743,-5.0298 -5.9348,-12.0997 -7.2457,-15.7111 -1.3108,-3.6114 -4.2186,-9.6211 -6.4617,-13.355 -2.2431,-3.7339 -5.0555,-9.4889 -6.2497,-12.7889 -1.1942,-3.3 -3.5113,-7.7111 -5.1492,-9.8025 -1.6378,-2.0914 -4.4751,-7.0414 -6.305,-11 -1.8299,-3.9586 -4.5371,-8.3225 -6.0159,-9.6975 -1.4788,-1.375 -4.0032,-5.2684 -5.6096,-8.6521 -1.6065,-3.3836 -4.0323,-6.8803 -5.3907,-7.7703 -1.3584,-0.8901 -3.7724,-4.1966 -5.3645,-7.348 -1.5922,-3.1513 -3.8979,-6.6296 -5.124,-7.7296 -1.226,-1.1 -3.692,-4.25 -5.4799,-7 -1.788,-2.75 -4.7096,-6.35 -6.4925,-8 -1.7829,-1.65 -4.6925,-6.1573 -6.4659,-10.0161 -2.0943,-4.5572 -5.2968,-9.1645 -9.1377,-13.1461 -3.2524,-3.3714 -8.3885,-9.1655 -11.4135,-12.8759 -3.025,-3.7103 -7.3388,-8.5946 -9.5863,-10.854 -2.2475,-2.2593 -5.1284,-5.6235 -6.4021,-7.4758 -2.7103,-3.9418 -31.8927,-33.0983 -37.0116,-36.9788 -1.925,-1.4593 -5.778,-4.9033 -8.5621,-7.6533 -2.7842,-2.75 -8.3819,-7.7 -12.4393,-11 -4.0574,-3.3 -9.8794,-8.5605 -12.9378,-11.6899 -3.2064,-3.2809 -8.1406,-6.9644 -11.654,-8.7001 -3.3875,-1.6734 -7.25,-4.5268 -8.6984,-6.4256 -1.4328,-1.8786 -4.6665,-4.3846 -7.186,-5.5689 -2.5194,-1.1842 -7.2726,-4.6279 -10.5627,-7.6525 -3.2901,-3.0247 -8.4656,-6.6754 -11.5012,-8.1127 -3.0356,-1.4373 -6.5181,-3.8605 -7.7389,-5.385 -1.2208,-1.5244 -5.8196,-4.9206 -10.2196,-7.5469 -4.4,-2.6263 -9.522,-6.0834 -11.3821,-7.6822 -1.8602,-1.5989 -6.7476,-4.4408 -10.8608,-6.3153 -4.2688,-1.9453 -9.0979,-5.0766 -11.2512,-7.2954 -2.3296,-2.4005 -5.7304,-4.5376 -8.8918,-5.5876 -2.8156,-0.9352 -7.0307,-3.3056 -9.3667,-5.2676 -4.1048,-3.4475 -13.0394,-8.2405 -15.3983,-8.2605 -0.633,-0.01 -3.9001,-2.0764 -7.2602,-4.6022 -3.3601,-2.5259 -9.5922,-6.0422 -13.8491,-7.8141 -4.2569,-1.7718 -10.4398,-5.0614 -13.7398,-7.3101 -3.3,-2.2487 -9.6,-5.4853 -14,-7.1925 -4.4,-1.7071 -9.9377,-4.4224 -12.3059,-6.0339 -2.3683,-1.6115 -7.7683,-4.0836 -12,-5.4935 -4.2318,-1.4099 -10.6191,-4.3636 -14.1941,-6.5638 -3.575,-2.2003 -8.975,-4.6955 -12,-5.5451 -8.8503,-2.4856 -16.1603,-5.6037 -21.2378,-9.0591 -4.5056,-3.0663 -10.4253,-5.3648 -22.8024,-8.8537 -3.0471,-0.859 -7.842,-3.2913 -10.6554,-5.4053 -3.7604,-2.8255 -7.382,-4.412 -13.6736,-5.99 -10.9883,-2.7559 -16.7765,-2.7546 -21.6866,0.01 -4.0181,2.2583 -12.4598,12.0427 -15.4479,17.905 -0.9654,1.8939 -3.947,5.7791 -6.6258,8.6336 -2.6788,2.8546 -4.8705,5.6941 -4.8705,6.3099 0,0.6158 -2.1693,3.4553 -4.8208,6.3099 -2.6514,2.8545 -6.0079,7.2638 -7.459,9.7982 -1.451,2.5345 -3.772,5.351 -5.1576,6.2589 -1.3857,0.908 -4.2166,4.1036 -6.291,7.1014 -10.0903,14.582 -14.7466,20.7154 -16.397,21.5987 -0.9933,0.5316 -3.6995,4.2215 -6.0137,8.1997 -2.3142,3.9783 -7.6265,10.9324 -11.8051,15.4536 -4.1786,4.5213 -9.1385,10.8213 -11.022,14 -1.8836,3.1788 -5.8117,8.3337 -8.7292,11.4554 -2.9175,3.1216 -5.3046,6.1441 -5.3046,6.7166 0,0.5725 -2.0215,3.317 -4.4923,6.0989 -2.4707,2.7819 -5.3993,6.8362 -6.5081,9.0094 -1.1087,2.1733 -3.3331,4.9254 -4.9432,6.1157 -1.6101,1.1904 -4.3268,4.7899 -6.0372,7.999 -1.7105,3.2091 -3.9419,6.4175 -4.9588,7.1297 -1.0169,0.7123 -3.6473,4.0026 -5.8453,7.3118 -2.1981,3.3092 -4.7613,6.6515 -5.6962,7.4274 -0.9348,0.7758 -3.7757,4.3592 -6.3132,7.9631 -2.5374,3.6039 -6.7883,8.9695 -9.4464,11.9235 -2.6581,2.954 -5.556,6.779 -6.4396,8.5 -0.8837,1.721 -2.8945,4.4545 -4.4685,6.0744 -1.574,1.6199 -3.8118,4.9076 -4.9729,7.3061 -1.1611,2.3984 -3.4428,5.3454 -5.0706,6.5489 -1.6278,1.2035 -4.5023,4.7277 -6.3879,7.8317 -1.8855,3.1039 -4.4841,6.3353 -5.7745,7.1809 -1.2905,0.8455 -3.1399,3.2585 -4.1099,5.3622 -0.9699,2.1037 -3.8939,6.0749 -6.4978,8.8249 -2.6038,2.75 -5.7104,6.6409 -6.9035,8.6465 -1.1931,2.0056 -3.2543,4.3575 -4.5805,5.2264 -1.3261,0.8689 -3.8054,4.1957 -5.5095,7.3929 -1.7041,3.1972 -4.1187,6.9203 -5.3658,8.2736 -5.2059,5.6491 -17.5364,21.8205 -20.1758,26.4606 -1.5644,2.75 -4.1773,6.092 -5.8066,7.4267 -1.6292,1.3347 -4.0168,4.8111 -5.3056,7.7254 -1.5264,3.4516 -3.5555,6.0917 -5.8204,7.5733 -1.9123,1.251 -4.4533,4.0095 -5.6466,6.1299 -1.1933,2.1204 -4.1392,6.0729 -6.5465,8.7834 -2.4072,2.7104 -4.3768,5.3809 -4.3768,5.9343 0,0.5534 -2.8125,4.1413 -6.25,7.9731 -11.1824,12.465 -14.348,16.3795 -17.0207,21.0474 -1.4466,2.5264 -4.1642,5.7635 -6.039,7.1936 -1.8749,1.43 -4.1353,4.1309 -5.0232,6.0021 -2.0507,4.3214 -12.684,18.7897 -18.2518,24.8343 -2.3424,2.5429 -5.6202,7.3204 -7.2841,10.6165 -1.6639,3.2962 -4.2941,7.0656 -5.845,8.3765 -1.5509,1.3109 -4.1462,4.1835 -5.7673,6.3835 -1.6211,2.2 -4.651,5.9024 -6.7332,8.2277 -2.0821,2.3252 -3.7857,4.924 -3.7857,5.7752 0,0.8511 -2.7,4.4498 -6,7.9971 -3.3,3.5473 -6,6.8409 -6,7.3192 0,0.4783 -2.25,3.4408 -5,6.5834 -2.75,3.1426 -5,6.1013 -5,6.575 0,0.4737 -2.1764,3.26 -4.8365,6.1918 -2.6601,2.9318 -6.4106,7.8056 -8.3345,10.8306 -1.9238,3.025 -4.3008,6.1619 -5.282,6.9708 -0.9812,0.809 -4.013,4.774 -6.7373,8.8111 -5.557,8.2352 -5.5024,8.6762 1.5009,12.1428 l 4.1894,2.0737 475.5538,8e-4 475.5539,8e-4 3.2009,-3.3026 z M 507.4047,-199.0188 c 2.0167,-2.0166 3.6667,-4.0266 3.6667,-4.4666 0,-0.44 2.0254,-3.0805 4.501,-5.8678 2.4755,-2.7874 5.1291,-6.5711 5.8967,-8.4084 0.7677,-1.8372 3.0308,-4.6342 5.0292,-6.2155 1.9983,-1.5812 4.9164,-5.125 6.4845,-7.875 1.5681,-2.75 4.241,-6.2289 5.9398,-7.7309 1.6988,-1.5021 3.961,-4.4271 5.0272,-6.5 1.0661,-2.073 3.3763,-5.1191 5.1336,-6.7691 1.7574,-1.65 4.6999,-5.3342 6.5389,-8.1871 1.8391,-2.8528 7.1276,-9.8278 11.7522,-15.5 4.6247,-5.6721 10.4417,-13.4629 12.9267,-17.3129 2.485,-3.85 5.965,-8.35 7.7334,-10 1.7685,-1.65 3.8756,-4.2644 4.6826,-5.8097 0.8071,-1.5454 2.9641,-4.4704 4.7934,-6.5 1.8294,-2.0297 4.2867,-5.7391 5.4609,-8.2431 1.1741,-2.5041 4.157,-6.2432 6.6287,-8.3093 2.4716,-2.066 5.12,-5.255 5.8854,-7.0867 0.7653,-1.8317 2.9221,-5.0675 4.793,-7.1908 1.8708,-2.1232 5.0687,-6.1763 7.1064,-9.007 2.0377,-2.8306 4.3039,-5.3764 5.036,-5.6573 0.7321,-0.281 3.2014,-4.1057 5.4873,-8.4995 2.9856,-5.7386 6.4808,-10.3441 12.4096,-16.3513 4.5394,-4.5995 9.9639,-11.334 12.0544,-14.9657 2.0905,-3.6316 5.1692,-7.9027 6.8416,-9.4913 1.6724,-1.5886 3.8796,-4.5189 4.9049,-6.5118 1.0253,-1.9929 3.2649,-4.9179 4.9769,-6.5 1.7121,-1.5821 3.9438,-4.4515 4.9595,-6.3765 1.0157,-1.925 3.7135,-5.3 5.995,-7.5 2.2816,-2.2 5.2725,-6.2299 6.6466,-8.9552 1.374,-2.7254 4.1579,-6.833 6.1864,-9.128 8.4341,-9.5421 23.9215,-29.8389 29.6882,-38.9074 2.2,-3.4596 5.8,-8.3297 8,-10.8224 9.5715,-10.845 12.3667,-14.4866 14.7869,-19.2645 1.4146,-2.7926 4.126,-6.2628 6.0253,-7.7115 1.8994,-1.4487 4.8264,-5.0668 6.5045,-8.0401 1.678,-2.9734 3.7305,-5.6669 4.561,-5.9856 0.8306,-0.3187 3.601,-3.7533 6.1566,-7.6324 2.5555,-3.8791 5.059,-7.0529 5.5632,-7.0529 0.5042,0 2.8261,-2.865 5.1596,-6.3667 5.0026,-7.5066 15.3217,-21.4258 20.2054,-27.2545 1.8991,-2.2667 4.444,-5.8667 5.6552,-8 1.2112,-2.1333 4.0865,-5.9038 6.3896,-8.3788 2.303,-2.475 5.1279,-6.0827 6.2776,-8.0171 1.1497,-1.9343 3.2879,-4.6343 4.7517,-6 1.4637,-1.3656 3.7084,-4.5395 4.9881,-7.0531 1.2797,-2.5136 3.9296,-5.6636 5.8885,-7 2.0082,-1.37 4.8556,-4.852 6.528,-7.9829 1.6314,-3.0542 3.9331,-6.4282 5.1149,-7.4977 1.1818,-1.0694 2.8257,-3.2538 3.6533,-4.854 0.8275,-1.6003 3.5155,-5.0595 5.9734,-7.6872 2.4579,-2.6277 5.998,-7.3169 7.8669,-10.4206 3.2115,-5.3331 10.4649,-14.645 18.5866,-23.8611 1.9999,-2.2695 5.0866,-6.6013 6.8592,-9.6263 1.7726,-3.025 3.84,-5.855 4.5943,-6.2888 0.7543,-0.4339 2.5858,-2.9089 4.07,-5.5 1.4843,-2.5912 4.868,-7.0468 7.5194,-9.9013 2.6515,-2.8546 4.8208,-5.8079 4.8208,-6.5629 0,-0.7551 -1.3795,-2.6945 -3.0656,-4.3099 l -3.0657,-2.9371 -434.0045,-0.2568 -434.0045,-0.2568 -2.9298,2.9299 c -2.6286,2.6285 -2.9299,3.5871 -2.9299,9.3204 0,6.7971 2.2009,25.2353 3.9369,32.9817 0.5743,2.5629 1.9268,6.8988 3.0054,9.6353 2.2057,5.5958 4.1863,15.4787 6.977,34.8146 1.446,10.0184 2.5202,14.2256 4.491,17.5884 1.4246,2.431 4.133,10.5452 6.0185,18.0316 1.8855,7.4863 4.5471,15.5466 5.9146,17.9116 1.3675,2.3651 3.9027,9.2439 5.6337,15.2863 1.7311,6.0425 4.4482,12.9502 6.0382,15.3506 1.5899,2.4003 3.6486,6.6815 4.5748,9.5137 1.9782,6.0487 4.455,11.1536 7.8116,16.0997 1.3312,1.9617 3.3371,6.2812 4.4575,9.5989 1.1204,3.3177 3.4278,7.788 5.1275,9.9341 1.6997,2.146 4.6129,7.1902 6.4738,11.2093 1.8609,4.0191 4.8233,8.6575 6.5832,10.3075 1.7599,1.65 4.4335,5.7 5.9413,9 1.5078,3.3 3.7509,6.9 4.9846,8 1.2338,1.1 3.0776,3.6347 4.0973,5.6327 1.0198,1.9981 6.6644,9.4231 12.5437,16.5 5.8793,7.077 12.6022,15.8394 14.9399,19.4721 2.3376,3.6326 4.9655,6.8792 5.8397,7.2147 0.8742,0.3355 3.1619,3.068 5.0837,6.0722 3.0988,4.8443 15.1206,17.4909 27.6869,29.1259 2.3866,2.2098 7.4344,7.5291 11.2174,11.8207 3.783,4.2917 8.5372,8.9009 10.5648,10.2427 2.0276,1.3418 5.0972,4.441 6.8214,6.8871 1.7242,2.4461 4.6201,5.4254 6.4352,6.6205 1.8152,1.1952 4.521,3.8964 6.0128,6.0027 1.4917,2.1063 4.5287,4.7563 6.7488,5.8889 2.2201,1.1326 5.212,3.8356 6.6487,6.0066 1.4367,2.171 4.7172,5.298 7.29,6.949 2.5728,1.6509 5.7115,4.3998 6.9749,6.1087 1.2634,1.7089 5.2959,5.0514 8.9612,7.4279 3.6652,2.3764 7.6601,5.6768 8.8775,7.3343 1.2174,1.6574 4.7867,4.2308 7.9317,5.7187 3.1451,1.4878 7.999,4.8365 10.7865,7.4416 2.7876,2.605 7.5433,6.3123 10.5683,8.2385 3.025,1.9262 6.4,4.5165 7.5,5.7564 1.1,1.2398 4.1011,3.3197 6.669,4.622 2.568,1.3022 7.376,4.6205 10.6845,7.3738 3.3085,2.7534 8.5199,6.192 11.5811,7.6413 3.0611,1.4494 7.3527,4.3696 9.537,6.4893 2.1842,2.1198 6.6128,5.1875 9.8413,6.8173 3.2285,1.6297 8.1508,4.9051 10.9384,7.2788 2.7876,2.3736 7.3281,5.1106 10.09,6.0824 2.7618,0.9717 7.282,3.5535 10.0448,5.7374 2.7628,2.1839 8.8457,5.7366 13.5174,7.895 4.6718,2.1584 10.2047,5.2934 12.2953,6.9669 2.0907,1.6734 7.6823,4.4526 12.4258,6.176 5.2377,1.903 10.4549,4.646 13.2855,6.9851 3.9956,3.3018 12.6838,6.9728 16.5025,6.9728 0.6076,0 3.797,2.475 7.0874,5.5 3.2904,3.025 6.324,5.5076 6.7413,5.5168 0.4173,0.01 4.8087,0.8776 9.7587,1.9296 11.979,2.546 11.6397,2.5806 15.8333,-1.6131 z"
       style="fill:#ffffff;fill-opacity:1" />
  </g>
</svg>
